<svg xmlns="http://www.w3.org/2000/svg" viewBox="0 0 55.214 55.219" enable-background="new 0 0 55.214 55.219"><linearGradient id="a" gradientUnits="userSpaceOnUse" x1="27.607" y1="53.719" x2="27.607" y2="1.5"><stop offset="0" stop-color="#D91A21"/><stop offset=".322" stop-color="#C21D23"/><stop offset="1" stop-color="#992427"/></linearGradient><circle cx="27.607" cy="27.61" r="26.107" fill="url(#a)" stroke="#fff" stroke-width="3" stroke-miterlimit="10"/><path d="M34.844 26.194c1.777 2.235 8.086 10.328 8.418 12.5-1.447 1.969-6.184 5.192-8.551 6.18-2.434-3.748-4.736-7.63-7.301-11.113-3.092 3.483-5.195 7.035-7.3 11.113-2.498-2.172-7.039-6.706-9.078-9.603 2.238-3.616 6.58-6.772 9.672-9.799-2.039-2.432-5.395-5.658-8.025-7.697 1.908-3.088 5.654-6.114 9.009-7.431 2.039 2.824 4.141 5.394 6.314 7.959 2.371-2.564 4.471-5.657 7.104-7.959 2.631.788 7.561 6.18 9.078 8.815-2.961 1.973-6.907 4.733-9.34 7.035z" fill="#fff"/></svg>