<svg xmlns="http://www.w3.org/2000/svg" viewBox="0 0 96.744 53.261" enable-background="new 0 0 96.744 53.261"><linearGradient id="a" gradientUnits="userSpaceOnUse" x1="47.84" y1="2.808" x2="47.84" y2="50.312"><stop offset="0" stop-color="#A5DFF9"/><stop offset=".995" stop-color="#3EC1CD"/></linearGradient><path fill="url(#a)" stroke="#fff" stroke-width="3" stroke-miterlimit="10" d="M1.5 10.588l59.226 1.913.514-9.693 32.94 23.508-32.94 23.996v-8.711l-59.74 2.402z"/><path d="M17.151 20.301c0-1.2.767-1.872 1.8-1.872.456 0 1.2.36 1.512.792l7.609 10.153h.048v-9.073c0-1.2.768-1.872 1.8-1.872s1.8.672 1.8 1.872v13.633c0 1.2-.768 1.872-1.8 1.872-.456 0-1.176-.359-1.512-.792l-7.609-10.032h-.048v8.952c0 1.2-.768 1.872-1.8 1.872s-1.8-.672-1.8-1.872v-13.633zm19.992 10.129c.24 1.704 1.656 2.496 3.264 2.496 1.776 0 3.001-1.392 3.913-1.392.744 0 1.416.743 1.416 1.487 0 1.488-3.072 2.929-5.641 2.929-3.889 0-6.48-2.832-6.48-6.649 0-3.505 2.544-6.696 6.192-6.696 3.744 0 6.217 3.408 6.217 6.288 0 1.032-.456 1.536-1.513 1.536h-7.368zm5.424-2.305c-.191-1.512-1.151-2.64-2.76-2.64-1.536 0-2.568 1.176-2.736 2.64h5.496zm8.4.841l-2.929-3.288c-.288-.337-.527-.816-.527-1.249 0-.912.888-1.68 1.776-1.68.552 0 .911.24 1.271.672l2.425 3.024 2.424-3.024c.36-.432.72-.672 1.272-.672.888 0 1.775.768 1.775 1.68 0 .433-.239.912-.527 1.249l-2.929 3.288 3.505 3.984c.264.288.48.792.48 1.176 0 1.008-.696 1.68-1.704 1.68-.768 0-1.08-.336-1.44-.768l-2.855-3.504-2.857 3.504c-.36.432-.672.768-1.44.768-1.008 0-1.704-.672-1.704-1.68 0-.384.216-.888.48-1.176l3.504-3.984zm11.051-3.049h-.768c-.936 0-1.512-.576-1.512-1.512 0-.864.648-1.513 1.512-1.513h.768v-2.063c0-1.152.72-1.921 1.729-1.921 1.008 0 1.728.768 1.728 1.921v2.063h.984c.888 0 1.656.408 1.656 1.513 0 1.08-.769 1.512-1.656 1.512h-.984v7.969c0 1.152-.72 1.92-1.728 1.92-1.009 0-1.729-.768-1.729-1.92v-7.969z" fill="#104068"/></svg>