<svg xmlns="http://www.w3.org/2000/svg"  width="93" height="41" viewBox="0 0 115 55" enable-background="new 0 0 93 41"><path fill="#D8F0FC" stroke="#fff" stroke-width="3" stroke-miterlimit="10" d="M87.6 1.5h-60.6c-14.1.3-25.5 11.9-25.5 26.1 0 14.2 11.4 25.8 25.5 26.1h60.6c14.4 0 26.1-11.7 26.1-26.1 0-14.4-11.7-26.1-26.1-26.1z"/><path d="M28.1 21.3c0-1.1.8-1.8 1.8-1.8h4c5.4 0 8.4 3.5 8.4 8.8 0 5-3.3 8.3-8.2 8.3h-4.1c-.8 0-1.9-.4-1.9-1.8v-13.5zm3.6 11.9h2.4c3.1 0 4.5-2.3 4.5-5.2 0-3.1-1.4-5.3-4.8-5.3h-2.2v10.5zm24.9-3c0 3.6-2.5 6.6-6.2 6.6s-6.2-3-6.2-6.6c0-3.5 2.5-6.7 6.2-6.7s6.2 3.2 6.2 6.7zm-8.9 0c0 1.7.9 3.5 2.7 3.5 1.9 0 2.7-1.8 2.7-3.5s-.8-3.5-2.7-3.5c-1.9 0-2.7 1.8-2.7 3.5zm11.1-4.6c0-1.2.7-1.9 1.7-1.9.9 0 1.5.5 1.6 1.3.7-.9 1.7-1.4 3.3-1.4 2.7 0 4.7 1.7 4.7 4.7v6.6c0 1.2-.7 1.9-1.7 1.9s-1.7-.8-1.7-1.9v-6c0-1.6-1-2.4-2.3-2.4-1.4 0-2.2 1-2.2 2.4v6c0 1.2-.7 1.9-1.7 1.9s-1.7-.8-1.7-1.9v-9.3zm16.9 5.7c.2 1.7 1.7 2.5 3.3 2.5 1.8 0 3-1.4 3.9-1.4.7 0 1.4.7 1.4 1.5 0 1.5-3.1 2.9-5.6 2.9-3.9 0-6.5-2.8-6.5-6.6 0-3.5 2.5-6.7 6.2-6.7s6.2 3.4 6.2 6.3c0 1-.5 1.5-1.5 1.5h-7.4zm5.4-2.3c-.2-1.5-1.2-2.6-2.8-2.6-1.5 0-2.6 1.2-2.7 2.6h5.5z" fill="#104068"/></svg>