<svg xmlns="http://www.w3.org/2000/svg" width="41.826" height="41.827" viewBox="0 0 41.826 41.827"><path fill="#fff" d="M41.826 20.912c0 11.55-9.366 20.915-20.916 20.915-11.548 0-20.91-9.365-20.91-20.915 0-11.546 9.362-20.912 20.911-20.912 11.549 0 20.915 9.366 20.915 20.912z"/><linearGradient id="a" gradientUnits="userSpaceOnUse" x1="20.913" y1="2.894" x2="20.913" y2="38.934"><stop offset="0" stop-color="#fff"/><stop offset="1" stop-color="#CDEAF8"/></linearGradient><path fill="url(#a)" d="M38.933 20.912c0 9.952-8.07 18.021-18.021 18.021s-18.018-8.069-18.018-18.021c0-9.948 8.067-18.019 18.018-18.019 9.951.001 18.021 8.071 18.021 18.019z"/><path fill="none" stroke="#2F2B3F" stroke-width="2.115" d="M14.378 26.411c-6.559 8.834-8.866-7.987-2.41-2.143l2.41 2.143z"/><path fill="#F1BE8C" d="M14.726 14.992c1.423-.081 13.16-.708 13.16-.708l-.328 1.14c8.287.027 9.41 12.444 3.84 16.853-7.163 5.67-23.101.747-21.98-9.491l.376-2.568"/><path fill="#2F2B3F" d="M15.43 13.984"/><path fill="#fff" d="M34.688 20.733c-2.798-6.529-9.351-3.8-8.817 1.131-.001 0 4.953 2.999 8.817-1.131z"/><path fill="none" stroke="#2F2B3F" stroke-width="1.018" d="M14.726 14.992c1.423-.081 13.16-.708 13.16-.708l-.328 1.14c8.287.027 10.163 12.135 3.84 16.853-7.6 5.67-23.101.747-21.98-9.491l.376-2.568"/><radialGradient id="b" cx="998.204" cy="-868.251" r="11.351" gradientTransform="matrix(.294 .02 -.02 .294 -293.28 262.018)" gradientUnits="userSpaceOnUse"><stop offset=".359" stop-color="#EB8D7A"/><stop offset=".725" stop-color="#F1BE8C"/></radialGradient><circle fill="url(#b)" cx="16.984" cy="26.864" r="3.34"/><path fill="#fff" d="M25.164 23.149c-2.89-6.742-10.321-3.853-9.771 1.239 0 0 5.78 3.027 9.771-1.239z"/><circle fill="#DEA07D" cx="21.335" cy="26.012" r=".707"/><circle fill="#DEA07D" cx="23.393" cy="27.037" r=".707"/><circle fill="#DEA07D" cx="24.758" cy="25.18" r=".707"/><circle fill="#DEA07D" cx="26.251" cy="26.697" r=".707"/><circle fill="#DEA07D" cx="30.442" cy="24.251" r=".707"/><circle fill="#DEA07D" cx="31.77" cy="25.58" r=".707"/><circle fill="#DEA07D" cx="32.982" cy="23.358" r=".707"/><path fill="none" stroke="#C67C5E" stroke-width=".679" d="M27.896 24.828l2.622 2.71-2.937.616"/><circle fill="#00BBF2" cx="19.601" cy="22.401" r="2.196"/><circle fill="#2F2B3F" cx="19.6" cy="22.401" r="1.027"/><path fill="#fff" d="M17.388 20.971l2.542 1.366-3.185.439"/><circle fill="#00BBF2" cx="30.169" cy="20.067" r="2.196"/><circle fill="#2F2B3F" cx="30.168" cy="20.067" r="1.027"/><path fill="#fff" d="M27.534 18.355l2.965 1.648-3.185.438"/><path fill="none" stroke="#C67C5E" stroke-width=".679" d="M28.605 29.771s-8.636-.075-10.971-2.041c0 0 0 4.424 4.301 5.53"/><path fill="#2F2B3F" d="M27.959 16.623c6.989-2.534 4.754-9.226-1.191-8.66.592.642 1.325 1.15 1.427 2.08l-.736-.222c-1.882-.511-3.452-1.565-5.473-1.821-1.581-.2-4.17-.411-6.284.933 1.226.252 5.298-.438 6.196 1.647-2.436.014-4.83-1.102-7.339-1.079-2.859.025-5.406 1.148-7.325 3.224 1.986-1.525 5.471-1.294 7.84-1.191-.261.297-3.25.648-3.101.626-1.649.255-3.477.363-4.971 1.203-2.067 1.162-2.064 3.13-3.03 5.169.995-.227 2.068-2.842 3.882-3.269-1.005 1.493-1.539 3.24-1.803 4.515-.247 1.192.358 3.309.724 4.464.334-1.672.171-2.625 1.551-3.289-.033 1.212-.299 3.053-.208 3.644.145.931 2.032-.923 2.966-.441 1.553.803 1.62 1.873 1.793 3.527.902.274.14-8.491.607-9.8 1.153-3.235 7.394-.745 9.652-2.367-.5.95-2.003 2.185-4.371 2.549 3.46.729 10.529-.88 12.979-4.211"/><path fill="#F1BE8C" d="M14.378 26.411c-6.559 8.834-8.866-7.987-2.41-2.143l2.41 2.143z"/></svg>