<svg xmlns="http://www.w3.org/2000/svg" width="198.148" height="41.821" viewBox="0 0 198.148 41.821"><path fill="#fff" d="M198.148 20.912c0-11.462-9.225-20.76-20.652-20.901v-.011h-156.638c-11.523.028-20.858 9.381-20.858 20.909 0 11.532 9.335 20.884 20.858 20.912h156.638v-.011c11.428-.141 20.652-9.44 20.652-20.898z"/><linearGradient id="a" gradientUnits="userSpaceOnUse" x1="98.815" y1="38.928" x2="98.815" y2="2.893"><stop offset="0" stop-color="#3EC1CD"/><stop offset="1" stop-color="#A5DFF9"/></linearGradient><path fill="url(#a)" d="M194.736 20.912c0-9.917-8.014-17.96-17.916-18.016v-.002h-156.04v.004c-9.89.071-17.887 8.107-17.887 18.012 0 9.908 7.997 17.944 17.887 18.015v.004h156.04v-.003c9.903-.057 17.916-8.101 17.916-18.014z"/><path fill="#0068A5" stroke="#0068A5" stroke-width="1.215" d="M62.755 28.25l-4.053-12.924-1.213.041-.541-1.871-.186-.595-.203-.591-.223-.578-.242-.572c-.424.012-.842.037-1.258.066l-.889-3.276c-1.781.169-3.564.56-5.279 1.147-1.709.584-3.348 1.359-4.836 2.29-1.486.931-2.826 2.016-3.943 3.221-1.111 1.203-2.004 2.526-2.6 3.935-.598-1.408-1.486-2.732-2.6-3.935-1.117-1.205-2.455-2.29-3.941-3.221-1.49-.931-3.127-1.706-4.838-2.29-1.713-.586-3.496-.978-5.277-1.147l-.889 3.276c-.416-.028-.834-.054-1.258-.066l-.242.572-.223.578-.205.591-.184.595-.545 1.871-1.209-.041-4.049 12.924v1.048l1.609.051c.266.009.562.026.887.051.322.025.674.058 1.049.098.373.04.771.088 1.188.143.416.056.85.12 1.297.188.672.104 1.377.226 2.102.361.727.135 1.473.284 2.231.446.754.163 1.521.338 2.285.526.762.188 1.524.389 2.27.6.373.104.742.215 1.109.325.363.11.723.223 1.076.34.354.114.699.233 1.037.353.338.12.668.24.988.363.322.124.635.249.934.376.299.127.588.254.863.382.275.129.537.259.787.39.248.129.479.258.697.389.119.07.242.133.367.184.125.053.254.098.385.133l.398.078c.137.018.275.025.416.025h2.963l.416-.025.398-.078c.133-.035.26-.08.387-.133l.367-.188c.291-.172.609-.345.951-.517.342-.173.711-.345 1.1-.513.389-.169.799-.337 1.227-.501.428-.166.873-.326 1.332-.483.688-.238 1.404-.466 2.141-.684.734-.219 1.49-.427 2.248-.623.762-.195 1.527-.381 2.287-.551.762-.173 1.517-.33 2.256-.474.369-.073.734-.142 1.094-.206l1.061-.185 1.016-.16.965-.138.898-.111.828-.086.746-.062.647-.033 1.613-.051v-1.048h.01z"/><path fill="#F36E28" d="M37.29 21.729l-20.045-6.357-1.365-.045-4.051 12.923 1.938.064.66.037.797.067.863.092.926.115 1 .144 1.049.168 1.094.19 1.123.216c.76.149 1.535.315 2.316.491.783.179 1.568.37 2.351.575.785.203 1.561.421 2.326.65.764.228 1.512.47 2.232.721.477.164.94.335 1.385.508.451.177.887.354 1.303.536.42.185.822.372 1.203.564.383.193.746.391 1.086.592l.191.115h3.234l.191-.115c.34-.201.705-.398 1.086-.592.381-.192.785-.38 1.201-.564.418-.182.854-.359 1.303-.536.449-.173.914-.344 1.387-.508.723-.251 1.471-.493 2.234-.721.764-.229 1.541-.447 2.324-.65.783-.205 1.57-.397 2.352-.575.783-.176 1.559-.342 2.318-.491l1.121-.216 1.094-.19 1.051-.168 1-.144.926-.115.863-.092.795-.067.66-.037 1.941-.064-4.053-12.924-1.365.045-20.045 6.358z"/><path fill="#0068A5" d="M37.29 21.729l-20.045-6.357-1.365-.045-4.051 12.923 1.938.064.66.037.797.067.863.092.926.115 1 .144 1.049.168 1.094.19 1.123.216c.76.149 1.535.315 2.316.491.783.179 1.568.37 2.351.575.785.203 1.561.421 2.326.65.764.228 1.512.47 2.232.721.477.164.94.335 1.385.508.451.177.887.354 1.303.536.42.185.822.372 1.203.564.383.193.746.391 1.086.592l.191.115h3.234l.191-.115c.34-.201.705-.398 1.086-.592.381-.192.785-.38 1.201-.564.418-.182.854-.359 1.303-.536.449-.173.914-.344 1.387-.508.723-.251 1.471-.493 2.234-.721.764-.229 1.541-.447 2.324-.65.783-.205 1.57-.397 2.352-.575.783-.176 1.559-.342 2.318-.491l1.121-.216 1.094-.19 1.051-.168 1-.144.926-.115.863-.092.795-.067.66-.037 1.941-.064-4.053-12.924-1.365.045-20.045 6.358z"/><path fill="#053E60" d="M57.29 15.374c-.268.011-.557.027-.861.053-.307.024-.631.055-.969.092-.34.038-.691.08-1.059.131-.369.049-.748.106-1.141.168-.596.096-1.219.206-1.859.326-.641.123-1.299.257-1.963.404-.666.146-1.34.305-2.014.474-.674.171-1.348.353-2.012.544l-.988.296c-.326.102-.648.204-.967.312l-.941.326c-.309.111-.613.226-.91.342-.289.115-.572.231-.85.353-.277.118-.547.241-.809.365-.262.125-.518.253-.762.382-.246.129-.482.263-.711.4h-2.371c-.305-.185-.625-.36-.963-.532-.338-.171-.689-.339-1.057-.5-.365-.162-.744-.319-1.133-.472-.389-.152-.791-.303-1.199-.446-.623-.222-1.268-.431-1.926-.63-.656-.199-1.324-.388-1.996-.564-.674-.178-1.35-.344-2.02-.497-.672-.155-1.336-.299-1.986-.429l-.963-.185-.938-.165-.902-.148-.859-.125-.799-.102-.752-.079-.707-.059-.66-.037-3.561 12.144.775.042.832.068.889.095.939.116 1.014.148 1.062.17 1.104.192 1.137.217c.766.151 1.549.317 2.338.497.791.18 1.586.373 2.377.58.793.206 1.58.425 2.354.657.774.233 1.533.477 2.268.733.482.169.953.341 1.412.517.459.179.904.361 1.334.551.43.188.846.382 1.242.583.396.199.775.405 1.135.617h2.791c.268-.157.547-.313.834-.465.289-.15.59-.299.896-.444.309-.145.627-.286.953-.426.326-.139.66-.276 1.002-.409.352-.136.705-.27 1.07-.399.363-.13.732-.256 1.107-.379l1.141-.363c.383-.118.771-.233 1.164-.344.781-.224 1.574-.434 2.367-.633.795-.197 1.59-.382 2.373-.552.783-.171 1.557-.328 2.309-.471.756-.142 1.49-.268 2.193-.381.463-.07.91-.137 1.344-.195.432-.059.85-.109 1.248-.153.398-.043.777-.079 1.139-.106.359-.028.699-.049 1.016-.062l-3.551-12.143z"/><radialGradient id="b" cx="-447.916" cy="-154.001" r="60.832" gradientTransform="matrix(.459 0 0 .455 242.749 102.047)" gradientUnits="userSpaceOnUse"><stop offset="0" stop-color="#D3DEF1"/><stop offset=".923" stop-color="#DCE5F4"/><stop offset="1" stop-color="#DDE6F5"/></radialGradient><path fill="url(#b)" d="M37.29 18.541l-18.803-7.381-.242.572-.223.578-.205.591-.184.595s-3.816 13.118-3.897 13.488l.748.042.814.067.881.096.939.116c.328.044.668.093 1.014.147l1.062.169 1.104.193c-8.189-1.496-7.047-1.403 1.137.217.766.15 1.549.316 2.338.496.791.18 1.586.374 2.377.58.793.206 1.58.426 2.354.658.774.231 1.533.476 2.268.732.482.168.953.34 1.412.519.459.178.904.361 1.334.548.43.19.846.383 1.242.584.396.199.775.405 1.135.619h2.791c.268-.158.547-.313.834-.466.289-.151.59-.3.896-.444.309-.145.627-.287.953-.425.326-.14.66-.277 1.002-.411.352-.134.705-.267 1.07-.396.363-.131.732-.258 1.107-.38.375-.124.756-.246 1.141-.363l1.164-.345c.781-.224 1.574-.434 2.367-.631.795-.197 1.59-.383 2.373-.553.783-.172 1.557-.329 2.309-.47.756-.143 1.49-.27 2.193-.381.463-.072.91-.139 1.344-.196.432-.059.85-.109 1.248-.153.398-.043.777-.079 1.139-.107.359-.028.699-.048 1.016-.062-.02-.101-3.895-13.488-3.895-13.488l-.186-.595-.203-.591-.223-.578-.242-.572-18.803 7.381z"/><path fill="#E9EEF8" d="M38.421 20.373v-.002zm-2.461 12.962h-.002l.002-.001z"/><linearGradient id="c" gradientUnits="userSpaceOnUse" x1="59.446" y1="21.584" x2="37.244" y2="21.584"><stop offset="0" stop-color="#fff"/><stop offset=".422" stop-color="#F2F5FB"/><stop offset="1" stop-color="#DDE6F5"/></linearGradient><path fill="url(#c)" d="M37.29 32.007v-12.85l.107-.126.105-.121.109-.122.109-.121c.994-1.083 2.156-2.079 3.463-2.968 1.309-.889 2.762-1.669 4.33-2.322 1.57-.655 3.256-1.179 5.029-1.556 1.771-.377 3.633-.604 5.551-.661l3.352 11.533c-2.26.066-4.451.331-6.543.771-2.088.438-4.074 1.052-5.926 1.812-1.848.762-3.559 1.673-5.102 2.709-1.539 1.033-2.908 2.192-4.078 3.452l-.131.141-.127.142-.125.143-.123.144"/><linearGradient id="d" gradientUnits="userSpaceOnUse" x1="15.134" y1="21.584" x2="37.244" y2="21.584"><stop offset="0" stop-color="#fff"/><stop offset=".422" stop-color="#F2F5FB"/><stop offset="1" stop-color="#DDE6F5"/></linearGradient><path fill="url(#d)" d="M15.134 22.693l3.354-11.533c1.916.057 3.777.284 5.551.661 1.774.377 3.459.9 5.029 1.556 1.568.653 3.018 1.434 4.328 2.322 1.307.889 2.469 1.885 3.463 2.968l.109.121.109.122.107.121.105.126v12.85l-.125-.145-.125-.143-.129-.142-.129-.141c-1.17-1.26-2.539-2.419-4.078-3.452-1.543-1.036-3.256-1.947-5.102-2.709-1.85-.761-3.838-1.375-5.926-1.812-2.088-.439-4.281-.703-6.541-.77"/><linearGradient id="e" gradientUnits="userSpaceOnUse" x1="37.29" y1="19.62" x2="56.929" y2="19.62"><stop offset="0" stop-color="#E9EEF8"/><stop offset=".203" stop-color="#F4F7FC"/><stop offset=".502" stop-color="#FCFDFE"/><stop offset="1" stop-color="#fff"/></linearGradient><path fill="url(#e)" d="M37.29 31.291v-12.75c.596-1.408 1.488-2.732 2.6-3.935 1.117-1.205 2.457-2.29 3.943-3.221 1.488-.931 3.127-1.706 4.836-2.29 1.715-.586 3.498-.978 5.279-1.147l2.98 10.999c-2.1.194-4.205.652-6.225 1.336-2.018.682-3.949 1.586-5.705 2.673-1.752 1.084-3.33 2.349-4.645 3.754-1.311 1.402-2.362 2.942-3.063 4.581"/><g enable-background="new"><linearGradient id="f" gradientUnits="userSpaceOnUse" x1="17.651" y1="19.62" x2="37.29" y2="19.62"><stop offset="0" stop-color="#fff"/><stop offset=".802" stop-color="#FDFEFF"/><stop offset="1" stop-color="#FAFDFF"/></linearGradient><path fill="url(#f)" d="M17.651 18.948l2.982-10.999c1.781.169 3.564.56 5.277 1.147 1.711.584 3.348 1.359 4.838 2.29 1.486.931 2.824 2.016 3.941 3.221 1.113 1.203 2.002 2.526 2.6 3.935v12.75c-.703-1.639-1.752-3.179-3.064-4.58-1.314-1.405-2.891-2.67-4.645-3.754-1.756-1.087-3.686-1.991-5.703-2.673-2.02-.684-4.124-1.143-6.226-1.337"/></g><path fill="#fff" d="M56.929 18.948c-2.1.194-4.205.652-6.225 1.336-2.018.682-3.949 1.586-5.705 2.673-1.752 1.084-3.33 2.349-4.645 3.754-1.312 1.401-2.363 2.941-3.064 4.58-.703-1.639-1.752-3.179-3.064-4.58-1.314-1.405-2.891-2.67-4.645-3.754-1.756-1.087-3.686-1.991-5.703-2.673-2.021-.684-4.125-1.142-6.227-1.336l-.043.517c2.051.188 4.108.635 6.082 1.3 1.971.667 3.859 1.55 5.576 2.609 1.715 1.058 3.254 2.286 4.535 3.647 1.281 1.358 2.303 2.844 2.98 4.416l.129.141.129.142.125.143.125.145.125-.145.125-.143.127-.142.131-.141c.68-1.572 1.701-3.059 2.98-4.416 1.281-1.361 2.824-2.592 4.537-3.648 1.717-1.059 3.604-1.942 5.574-2.61 1.975-.666 4.033-1.116 6.084-1.302l-.043-.513z"/><path d="M70.106 14.783c0-.415.18-.612.594-.612h1.387c.396 0 .576.197.576.612v4.861l4.231-4.97c.306-.432.468-.504 1.008-.504h1.873c.198 0 .378.09.378.288 0 .144-.072.271-.198.433l-4.699 5.311 5.132 6.213c.107.144.197.287.197.414 0 .215-.161.287-.359.287h-2.106c-.541 0-.702-.072-1.009-.486l-4.447-5.581v5.474c0 .414-.18.594-.576.594h-1.388c-.414 0-.594-.18-.594-.594v-11.74zm19.191 8.372h-5.744c.126 1.441 1.225 2.395 2.845 2.395 1.477 0 2.071-.558 2.503-.558.181 0 .307.108.324.36l.072.9c.018.324-.108.468-.486.611-.828.324-1.873.469-2.719.469-3.205 0-5.059-1.873-5.059-4.916 0-2.845 1.891-4.789 4.627-4.789 2.989 0 4.34 2.017 4.34 4.916-.001.396-.235.612-.703.612zm-1.621-1.566c-.036-1.332-.738-2.178-1.962-2.178-1.225 0-2.035.863-2.161 2.178h4.123zm12.007 1.566h-5.744c.126 1.441 1.225 2.395 2.845 2.395 1.477 0 2.071-.558 2.503-.558.18 0 .307.108.324.36l.072.9c.018.324-.108.468-.486.611-.828.324-1.873.469-2.719.469-3.205 0-5.06-1.873-5.06-4.916 0-2.845 1.891-4.789 4.627-4.789 2.989 0 4.34 2.017 4.34 4.916 0 .396-.235.612-.702.612zm-1.621-1.566c-.035-1.332-.738-2.178-1.962-2.178-1.225 0-2.035.863-2.161 2.178h4.123zm4.786 10.191c-.342 0-.521-.18-.521-.576v-12.784c0-.396.18-.576.521-.576h1.297c.378 0 .558.181.558.576v.72h.055c.702-1.025 1.8-1.512 3.061-1.512 2.772 0 4.033 2.269 4.033 4.969 0 2.414-1.368 4.736-4.051 4.736-1.314 0-2.287-.432-2.972-1.332h-.054v5.203c0 .396-.18.576-.558.576h-1.369zm1.926-9.381c0 1.854.918 2.988 2.287 2.988 1.477 0 2.232-1.332 2.232-2.862s-.702-2.953-2.196-2.953c-1.476 0-2.323 1.351-2.323 2.827zm14.543 4.717c-.342 0-.521-.18-.521-.576v-8.12c0-.396.18-.576.521-.576h1.297c.378 0 .558.181.558.576v.702h.072c.595-1.044 1.278-1.512 2.377-1.512.36 0 .685.035.846.09.198.072.324.18.324.54v1.099c0 .359-.162.486-.468.486-.234 0-.468-.091-.954-.091-1.53 0-2.125 1.405-2.125 3.187v3.619c0 .396-.18.576-.558.576h-1.369zm14.511-3.961h-5.744c.126 1.441 1.225 2.395 2.845 2.395 1.477 0 2.071-.558 2.503-.558.181 0 .307.108.324.36l.072.9c.018.324-.108.468-.486.611-.828.324-1.873.469-2.719.469-3.205 0-5.06-1.873-5.06-4.916 0-2.845 1.891-4.789 4.627-4.789 2.989 0 4.34 2.017 4.34 4.916 0 .396-.234.612-.702.612zm-1.621-1.566c-.036-1.332-.738-2.178-1.962-2.178-1.225 0-2.035.863-2.161 2.178h4.123zm10.73-2.791h.071v-.378c0-.396.181-.576.559-.576h1.368c.343 0 .523.181.523.576v8.12c0 .396-.18.576-.523.576h-1.278c-.378 0-.558-.18-.558-.576v-.594h-.072c-.738.955-1.747 1.387-2.935 1.387-2.791 0-4.142-2.322-4.142-4.988 0-2.43 1.513-4.717 4.069-4.717 1.297 0 2.215.396 2.918 1.17zm.089 3.709c0-1.764-.9-2.935-2.269-2.935-1.477 0-2.251 1.368-2.251 2.862 0 1.514.738 2.953 2.232 2.953 1.514.001 2.288-1.314 2.288-2.88zm11.519 3.367c-.647.99-1.71 1.459-2.971 1.459-2.791 0-4.123-2.322-4.123-4.988 0-2.357 1.387-4.717 4.015-4.717 1.333 0 2.323.432 3.008 1.332h.054v-5.186c0-.396.18-.594.558-.594h1.369c.342 0 .521.197.521.594v12.766c0 .396-.18.576-.521.576h-1.242c-.379 0-.559-.18-.559-.576v-.666h-.109zm-.018-3.367c0-1.764-.918-2.935-2.287-2.935-1.477 0-2.232 1.368-2.232 2.862 0 1.514.721 2.953 2.196 2.953 1.459.001 2.323-1.295 2.323-2.88zm6.173-9.273c.774 0 1.404.63 1.404 1.405 0 .774-.63 1.404-1.404 1.404-.756 0-1.387-.631-1.387-1.404.001-.775.631-1.405 1.387-1.405zm-1.206 5.186c0-.396.18-.576.54-.576h1.368c.36 0 .54.181.54.576v8.12c0 .396-.18.576-.54.576h-1.368c-.36 0-.54-.18-.54-.576v-8.12zm5.489 8.696c-.342 0-.521-.18-.521-.576v-8.12c0-.396.18-.576.521-.576h1.297c.378 0 .558.181.558.576v.685h.108c.721-1.026 1.692-1.477 2.989-1.477 2.593 0 3.475 1.801 3.475 3.835v5.077c0 .396-.18.576-.54.576h-1.368c-.36 0-.54-.18-.54-.576v-4.195c0-1.746-.45-2.664-1.729-2.664-1.513 0-2.323 1.242-2.323 3.188v3.672c0 .396-.18.576-.558.576h-1.369zm19.947.145c0 3.295-1.782 4.754-5.239 4.754-.937 0-2.07-.199-2.845-.522-.522-.198-.595-.343-.54-.775l.126-.864c.054-.271.162-.396.414-.396.432 0 1.152.666 2.827.666 1.891 0 2.809-.973 2.809-2.918v-1.476h-.054c-.667 1.044-1.693 1.386-2.936 1.386-2.719 0-4.087-2.16-4.087-4.771 0-2.34 1.351-4.717 4.069-4.717 1.314 0 2.322.432 3.007 1.332h.09v-.54c0-.396.18-.576.559-.576h1.278c.342 0 .521.181.521.576v8.841zm-2.448-4.808c0-1.782-.954-2.917-2.287-2.917-1.477 0-2.232 1.369-2.232 2.863 0 1.512.721 2.845 2.196 2.845 1.494 0 2.323-1.223 2.323-2.791z"/></svg>