<svg xmlns="http://www.w3.org/2000/svg" viewBox="0 0 135.2 55.2" enable-background="new 0 0 135.2 55.2"><linearGradient id="a" gradientUnits="userSpaceOnUse" x1="67.612" y1="53.722" x2="67.612" y2="1.5"><stop offset=".005" stop-color="#3EC1CD"/><stop offset="1" stop-color="#A5DFF9"/></linearGradient><path fill="url(#a)" stroke="#fff" stroke-width="3" stroke-miterlimit="10" d="M107.6 1.5h-80.6c-14.1.3-25.5 11.9-25.5 26.1 0 14.2 11.4 25.8 25.5 26.1h80.6c14.4 0 26.1-11.7 26.1-26.1 0-14.4-11.7-26.1-26.1-26.1z"/><path d="M24.3 17.1c1.9 0 5.6.6 5.6 2.9 0 .9-.7 1.7-1.6 1.7-1.1 0-1.8-.9-4-.9-3.2 0-4.9 2.7-4.9 5.9 0 3.1 1.7 5.7 4.9 5.7 2.2 0 3.1-1.1 4.1-1.1 1.2 0 1.7 1.2 1.7 1.8 0 2.5-3.9 3.1-5.8 3.1-5.3 0-8.9-4.2-8.9-9.6 0-5.4 3.6-9.5 8.9-9.5zm21.3 11.9c0 3.9-2.7 7.2-6.7 7.2s-6.7-3.3-6.7-7.2c0-3.8 2.8-7.3 6.7-7.3 3.9 0 6.7 3.5 6.7 7.3zm-9.7 0c0 1.8.9 3.8 3 3.8s3-2 3-3.8c0-1.8-.9-3.8-3-3.8s-3 2-3 3.8zm12-5c0-1.2.8-2.1 1.9-2.1 1 0 1.6.5 1.7 1.4.7-1 1.8-1.5 3.6-1.5 2.9 0 5.1 1.9 5.1 5v7.2c0 1.2-.8 2.1-1.9 2.1-1.1 0-1.9-.8-1.9-2.1v-6.5c0-1.7-1.1-2.6-2.4-2.6-1.5 0-2.4 1.1-2.4 2.6v6.5c0 1.2-.8 2.1-1.9 2.1-1.1 0-1.9-.8-1.9-2.1v-10zm16.2 1.3h-.8c-1 0-1.6-.6-1.6-1.6 0-.9.7-1.6 1.6-1.6h.8v-2.2c0-1.2.8-2.1 1.9-2.1 1.1 0 1.9.8 1.9 2.1v2.2h1.1c1 0 1.8.4 1.8 1.6 0 1.2-.8 1.6-1.8 1.6h-1.1v8.7c0 1.2-.8 2.1-1.9 2.1-1.1 0-1.9-.8-1.9-2.1v-8.7zm10.5 4.9c.3 1.8 1.8 2.7 3.5 2.7 1.9 0 3.3-1.5 4.2-1.5.8 0 1.5.8 1.5 1.6 0 1.6-3.3 3.2-6.1 3.2-4.2 0-7-3.1-7-7.2 0-3.8 2.8-7.3 6.7-7.3 4.1 0 6.7 3.7 6.7 6.8 0 1.1-.5 1.7-1.6 1.7h-7.9zm5.9-2.5c-.2-1.6-1.2-2.9-3-2.9-1.7 0-2.8 1.3-3 2.9h6zm5.9-3.7c0-1.2.8-2.1 1.9-2.1 1 0 1.6.5 1.7 1.4.7-1 1.8-1.5 3.6-1.5 2.9 0 5.1 1.9 5.1 5v7.2c0 1.2-.8 2.1-1.9 2.1-1.1-.1-1.8-.9-1.8-2.1v-6.5c0-1.7-1.1-2.6-2.4-2.6-1.5 0-2.4 1.1-2.4 2.6v6.5c0 1.2-.8 2.1-1.9 2.1-1.1 0-1.9-.8-1.9-2.1v-10zm16.1 1.3h-.8c-1 0-1.6-.6-1.6-1.6 0-.9.7-1.6 1.6-1.6h.8v-2.2c0-1.2.8-2.1 1.9-2.1 1.1 0 1.9.8 1.9 2.1v2.2h1.1c1 0 1.8.4 1.8 1.6 0 1.2-.8 1.6-1.8 1.6h-1.1v8.7c0 1.2-.8 2.1-1.9 2.1-1.1 0-1.9-.8-1.9-2.1v-8.7zm15.5.8c-.7 0-2.1-1.1-3.4-1.1-.7 0-1.3.3-1.3 1 0 1.7 6.5 1.5 6.5 5.7 0 2.5-2.1 4.4-5.3 4.4-2.1 0-5.2-1.2-5.2-2.9 0-.6.6-1.7 1.6-1.7 1.5 0 2.1 1.3 3.9 1.3 1.1 0 1.5-.4 1.5-1.1 0-1.7-6.5-1.5-6.5-5.7 0-2.6 2.1-4.4 5.1-4.4 1.8 0 4.7.9 4.7 2.7-.1 1-.8 1.8-1.6 1.8z" fill="#104068"/></svg>