<svg xmlns="http://www.w3.org/2000/svg" viewBox="0 0 55.2 55.2" enable-background="new 0 0 55.2 55.2"><linearGradient id="a" gradientUnits="userSpaceOnUse" x1="27.608" y1="53.719" x2="27.608" y2="1.5"><stop offset=".005" stop-color="#3EC1CD"/><stop offset="1" stop-color="#A5DFF9"/></linearGradient><circle fill="url(#a)" stroke="#fff" stroke-width="3" stroke-miterlimit="10" cx="27.6" cy="27.6" r="26.1"/><path fill="#104068" d="M40.6 13.8c-3.9-3.9-10.3-3.9-14.3 0-3.9 3.9-3.9 10.3 0 14.3 3.9 3.9 10.3 3.9 14.3 0 3.9-4 3.9-10.4 0-14.3zm-12.1 12.1c-2.7-2.7-2.7-7.2 0-9.9s7.2-2.7 9.9 0 2.7 7.2 0 9.9-7.2 2.7-9.9 0zm-13.1 17.1l12.8-14.1-2.9-2.9-14.1 12.8 4.2 4.2zm23.1-23h-4.2v-4.1h-2.2v4.1h-4.2v2.3h4.2v4.2h2.2v-4.2h4.2z"/></svg>