<svg xmlns="http://www.w3.org/2000/svg" viewBox="0 0 28 28" enable-background="new 0 0 28 28"><linearGradient id="a" gradientUnits="userSpaceOnUse" x1="13.999" y1="26.5" x2="13.999" y2="1.5"><stop offset="0" stop-color="#D91A21"/><stop offset=".322" stop-color="#C21D23"/><stop offset="1" stop-color="#992427"/></linearGradient><circle fill="url(#a)" stroke="#fff" stroke-width="3" stroke-miterlimit="10" cx="14" cy="14" r="12.5"/><path fill="#fff" d="M17.1 13.4c.8 1 3.5 4.4 3.6 5.4-.6.8-2.7 2.2-3.7 2.7-1-1.6-2-3.3-3.1-4.8-1.3 1.5-2.2 3-3.1 4.8-1.1-.9-3-2.9-3.9-4.1 1-1.6 2.8-2.9 4.2-4.2-.9-1-2.3-2.4-3.5-3.3.8-1.3 2.4-2.6 3.9-3.2.9 1.2 1.8 2.3 2.7 3.4 1-1.1 1.9-2.4 3.1-3.4 1.1.3 3.3 2.7 3.9 3.8-1.3.7-3 1.9-4.1 2.9z"/></svg>