<?xml version="1.0" encoding="utf-8"?>
<!-- Generator: Adobe Illustrator 17.0.2, SVG Export Plug-In . SVG Version: 6.00 Build 0)  -->
<!DOCTYPE svg PUBLIC "-//W3C//DTD SVG 1.1//EN" "http://www.w3.org/Graphics/SVG/1.1/DTD/svg11.dtd">
<svg version="1.1" id="Layer_1" xmlns="http://www.w3.org/2000/svg" xmlns:xlink="http://www.w3.org/1999/xlink" x="0px" y="0px"
	 width="96.7px" height="53.3px" viewBox="0 0 96.7 53.3" style="enable-background:new 0 0 96.7 53.3;" xml:space="preserve">
<style type="text/css">
	.Drop_x0020_Shadow{fill:none;}
	.Round_x0020_Corners_x0020_2_x0020_pt{fill:#FFFFFF;stroke:#000000;stroke-miterlimit:10;}
	.Live_x0020_Reflect_x0020_X{fill:none;}
	.Bevel_x0020_Soft{fill:url(#SVGID_1_);}
	.Dusk{fill:#FFFFFF;}
	.Foliage_GS{fill:#FFDD00;}
	.Pompadour_GS{fill-rule:evenodd;clip-rule:evenodd;fill:#44ADE2;}
	.st0{fill:#D8D8D8;stroke:#FFFFFF;stroke-width:3;stroke-miterlimit:10;}
	.st1{fill:#A9A8A8;}
</style>
<linearGradient id="SVGID_1_" gradientUnits="userSpaceOnUse" x1="-249.2305" y1="-394.4973" x2="-248.5234" y2="-393.7902">
	<stop  offset="0" style="stop-color:#DEDFE3"/>
	<stop  offset="0.1738" style="stop-color:#D8D9DD"/>
	<stop  offset="0.352" style="stop-color:#C9CACD"/>
	<stop  offset="0.5323" style="stop-color:#B4B5B8"/>
	<stop  offset="0.7139" style="stop-color:#989A9C"/>
	<stop  offset="0.8949" style="stop-color:#797C7E"/>
	<stop  offset="1" style="stop-color:#656B6C"/>
</linearGradient>
<g>
	<g>
		<g>
			<polygon class="st0" points="1.5,10.6 60.7,12.5 61.2,2.8 94.2,26.3 61.2,50.3 61.2,41.6 1.5,44 			"/>
		</g>
	</g>
	<g>
		<path class="st1" d="M17.2,20.3c0-1.2,0.8-1.9,1.8-1.9c0.5,0,1.2,0.4,1.5,0.8l7.6,10.2h0v-9.1c0-1.2,0.8-1.9,1.8-1.9
			s1.8,0.7,1.8,1.9v13.6c0,1.2-0.8,1.9-1.8,1.9c-0.5,0-1.2-0.4-1.5-0.8l-7.6-10h0v9c0,1.2-0.8,1.9-1.8,1.9c-1,0-1.8-0.7-1.8-1.9
			V20.3z"/>
		<path class="st1" d="M37.1,30.4c0.2,1.7,1.7,2.5,3.3,2.5c1.8,0,3-1.4,3.9-1.4c0.7,0,1.4,0.7,1.4,1.5c0,1.5-3.1,2.9-5.6,2.9
			c-3.9,0-6.5-2.8-6.5-6.6c0-3.5,2.5-6.7,6.2-6.7c3.7,0,6.2,3.4,6.2,6.3c0,1-0.5,1.5-1.5,1.5H37.1z M42.6,28.1
			c-0.2-1.5-1.2-2.6-2.8-2.6c-1.5,0-2.6,1.2-2.7,2.6H42.6z"/>
		<path class="st1" d="M51,29L48,25.7c-0.3-0.3-0.5-0.8-0.5-1.2c0-0.9,0.9-1.7,1.8-1.7c0.6,0,0.9,0.2,1.3,0.7l2.4,3l2.4-3
			c0.4-0.4,0.7-0.7,1.3-0.7c0.9,0,1.8,0.8,1.8,1.7c0,0.4-0.2,0.9-0.5,1.2L55,29l3.5,4c0.3,0.3,0.5,0.8,0.5,1.2c0,1-0.7,1.7-1.7,1.7
			c-0.8,0-1.1-0.3-1.4-0.8L53,31.5L50.1,35c-0.4,0.4-0.7,0.8-1.4,0.8c-1,0-1.7-0.7-1.7-1.7c0-0.4,0.2-0.9,0.5-1.2L51,29z"/>
		<path class="st1" d="M62,25.9h-0.8c-0.9,0-1.5-0.6-1.5-1.5c0-0.9,0.6-1.5,1.5-1.5H62v-2.1c0-1.2,0.7-1.9,1.7-1.9
			c1,0,1.7,0.8,1.7,1.9v2.1h1c0.9,0,1.7,0.4,1.7,1.5c0,1.1-0.8,1.5-1.7,1.5h-1v8c0,1.2-0.7,1.9-1.7,1.9c-1,0-1.7-0.8-1.7-1.9V25.9z"
			/>
	</g>
</g>
</svg>
