<svg xmlns="http://www.w3.org/2000/svg" width="1024" height="768" viewBox="0 0 1024 768"><linearGradient id="a" gradientUnits="userSpaceOnUse" x1="512" x2="512" y2="768"><stop offset="0" stop-color="#C83D2C"/><stop offset=".727" stop-color="#EEC082"/><stop offset="1" stop-color="#FFF9B4"/></linearGradient><path fill="url(#a)" d="M0 0h1024v768h-1024z"/><path d="M1024 92.697v236.986c-6.326-145.645-55.889-246.086-121.555-329.683h75.821c17.101 28.958 32.583 59.609 45.734 92.697zm0 267.185v171.132c-38.934 97.854-96.997 175.693-170.898 236.986h-30.488c55.28-44.975 102.849-99.035 137.6-165.26 34.772-66.267 60.088-144.744 63.786-242.858zm-299.672 408.118h-409.589c-61.577-32.088-114.139-75.924-156.054-130.027-41.815-53.973-74.779-118.525-92.268-195.879-9.239-40.863-13.398-87.248-11.635-133.383 1.689-44.177 10.231-87.475 21.263-123.737 22.585-74.249 57.858-134.102 102.697-184.974h115.136c-52.343 44.994-93.572 101.934-117.542 176.585-12.001 37.377-20.342 83.671-18.455 130.448 1.923 47.64 10.307 88.064 24.07 124.575 26.993 71.59 67.746 126.9 123.56 170.293 53.911 41.914 125.005 73.826 215.426 73.822 90.793-.004 161.15-32.447 215.427-74.242 55.508-42.742 96.907-99.072 123.559-169.873 13.727-36.465 21.863-77.786 23.669-124.995 1.794-46.918-6.57-92.903-18.454-130.448-23.607-74.574-65.575-130.957-117.543-176.165h112.729c44.53 50.396 80.112 110.729 102.697 184.974 11.047 36.312 19.669 79.672 21.262 124.155 1.68 46.882-2.985 92.672-12.034 132.965-17.435 77.621-49.876 142.896-91.866 196.297-42.328 53.828-94.788 97.781-156.055 129.609zm95.076-455.096c2.27 49.826-8.503 96.979-22.865 132.965-29.415 73.691-79.929 125.48-146.025 160.227-33.101 17.398-74.226 29.201-119.547 31.457-49.481 2.463-91.914-8.898-126.767-24.326-70.05-31.012-120.726-82.654-153.648-152.26-16.922-35.777-27.513-77.646-29.686-125.414-2.314-50.873 8.021-95.407 22.868-132.124 29.725-73.525 78.61-126.053 145.221-161.066 33.76-17.745 73.499-28.745 119.949-31.039 48.64-2.403 91.72 8.861 126.367 23.908 70.651 30.68 120.24 81.532 154.048 151.838 16.104 33.497 27.868 77.149 30.085 125.834zm-63.785-126.253c-13.875-31.135-33.467-57.212-55.361-78.853-22.892-22.629-47.853-40.13-79.43-53.69-30.523-13.104-68.967-22.196-110.722-20.132-81.35 4.02-136.776 38.952-179.722 85.566-21.086 22.885-38.556 50.315-51.35 83.049-12.713 32.526-21.668 71.151-19.657 115.347 3.797 83.452 36.771 143.467 81.437 188.33 21.807 21.902 48.391 40.338 79.432 53.688 30.721 13.213 67.438 23.129 110.721 20.973 81.138-4.039 137.119-40.121 179.722-85.566 20.859-22.252 39.15-50.285 51.75-82.631 12.474-32.014 21.643-72.599 19.657-116.184-1.982-43.519-12.605-78.768-26.477-109.897zm8.424 109.896c3.516 77.2-27.176 134.833-62.182 174.069-35.315 39.584-87.146 71.629-156.454 75.08-37.458 1.865-70.284-6.475-97.082-18.037-27.131-11.705-50.337-28.057-69.402-46.977-39.048-38.75-68.085-91.018-71.407-164.003-3.471-76.267 25.828-133.891 61.779-173.65 37.106-41.035 85.861-71.592 156.456-75.08 37.962-1.876 69.962 6.164 96.681 17.617 27.923 11.971 49.73 26.343 69.803 46.559 28.31 28.511 52.429 64.574 64.187 111.991 4.034 16.271 6.777 33.906 7.621 52.431zm-61.78-60.401c-9.974-38.862-29.94-69.808-53.756-92.697-31.578-30.349-76.969-56.286-138.803-52.85-58.051 3.228-99.48 28.269-129.576 62.916-29.02 33.411-53.884 80.311-50.948 144.709 2.752 60.343 27.169 104.606 59.773 135.899 31.37 30.107 76.763 56.777 138.804 53.689 27.709-1.381 53.959-9.748 75.018-20.553 22.022-11.301 39.294-23.91 54.96-41.945 28.905-33.279 53.862-81.551 50.947-145.546-.661-14.52-2.922-30.001-6.419-43.622zm-8.022 49.914c3.043 53.807-18.374 97.397-43.326 124.995-25.096 27.756-62.54 51.389-111.123 54.108-52.803 2.955-92.871-19.643-119.145-45.721-28.282-28.066-48.791-63.86-51.752-116.184-3-53.079 17.603-96.192 42.926-124.575 26.449-29.646 60.466-50.719 111.124-54.108 51.998-3.48 92.771 19.018 119.144 44.88 20.489 20.092 37.641 45.435 46.535 79.275 3.079 11.708 4.91 24.824 5.617 37.33zm-73.413-106.119c-20.564-19.368-51.115-36.887-91.466-34.394-36.825 2.277-64.673 19.322-84.245 41.944-19.361 22.38-35.667 53.736-33.297 95.633 2.195 38.814 18.513 67.652 40.116 88.083 21.309 20.153 50.091 37.09 91.065 34.813 36.653-2.037 65.83-19.889 84.645-41.524 18.833-21.652 35.463-54.354 32.896-96.052-2.474-40.198-18.286-68.318-39.714-88.503zm21.663 96.892c2.157 30.506-9.835 55.632-23.67 71.307-14.172 16.053-34.715 29.495-61.779 31.458-29.919 2.167-52.807-10.096-68.197-24.747-16.395-15.61-27.689-36.771-29.686-65.016-2.089-29.546 8.906-54.195 23.267-70.886 14.859-17.27 34.328-29.226 61.779-31.458 30.222-2.459 53.023 9.785 68.198 23.908 14.874 13.843 28.1 37.339 30.088 65.434zm-26.075-20.972c-4.443-13.193-12.812-23.391-22.868-31.039-7.619-5.798-22.317-13.792-40.918-12.583-27.816 1.806-46.83 20.489-54.959 41.944-21.356 56.361 35.374 111.221 87.854 83.05 19.406-10.419 36.628-31.972 34.1-64.176-.531-6.748-1.664-12.602-3.209-17.196zm-405.179 512.139h-44.529c-65.411-53.951-120.403-123.724-158.461-208.462-2.499-5.566-6.758-11.932-7.622-16.777-1.405-7.881-.001-18.787 0-28.943v-403.923c0-9.735-1.297-20.39 0-28.52.919-5.752 6.68-15.892 9.227-21.392 9.69-20.93 20.797-41.306 31.691-59.983h89.861c-39.846 49.858-73.25 107.361-95.476 176.585-21.478 66.897-33.231 156.644-20.862 243.697 22.566 158.791 99.14 267.49 196.171 347.718z" fill="#fff" opacity=".2" fill-rule="evenodd" clip-rule="evenodd"/></svg>