<svg xmlns="http://www.w3.org/2000/svg" width="157" height="41" viewBox="0 0 205.228 55.222" enable-background="new 0 0 157 41"><linearGradient id="a" gradientUnits="userSpaceOnUse" x1="102.614" y1="53.722" x2="102.614" y2="1.5"><stop offset=".005" stop-color="#3EC1CD"/><stop offset="1" stop-color="#A5DFF9"/></linearGradient><path fill="url(#a)" stroke="#fff" stroke-width="3" stroke-miterlimit="10" d="M177.6 1.5h-150.6c-14.1.3-25.5 11.9-25.5 26.1 0 14.2 11.4 25.8 25.5 26.1h150.6c14.4 0 26.1-11.7 26.1-26.1 0-14.4-11.7-26.1-26.1-26.1z"/><path d="M60.7 21.5c0-1.2.6-1.9 1.8-1.9h4.2c3.7 0 6 1.7 6 5.4 0 2.6-2 4.2-4.4 4.5l4.1 4.4c.3.4.5.7.5 1.1 0 .9-.7 1.8-1.8 1.8-.4 0-1-.2-1.4-.6l-5.3-6.5v5.3c0 1.2-.8 1.9-1.8 1.9s-1.8-.7-1.8-1.9v-13.5zm3.6 5.7h2.5c1.3 0 2.2-.8 2.2-2.1 0-1.4-.9-2.1-2.2-2.1h-2.5v4.2zm13.2 4.3c.2 1.7 1.7 2.5 3.3 2.5 1.8 0 3-1.4 3.9-1.4.7 0 1.4.7 1.4 1.5 0 1.5-3.1 2.9-5.6 2.9-3.9 0-6.5-2.8-6.5-6.6 0-3.5 2.5-6.7 6.2-6.7s6.2 3.4 6.2 6.3c0 1-.5 1.5-1.5 1.5h-7.4zm5.4-2.3c-.2-1.5-1.2-2.6-2.8-2.6-1.5 0-2.6 1.2-2.7 2.6h5.5zm17.2 5.4c0 .9 0 2.3-1.7 2.3-1 0-1.4-.6-1.7-1.5-.9 1.1-2 1.6-3.3 1.6-3.2 0-5.7-2.8-5.7-6.6s2.5-6.7 5.7-6.7c1.3 0 2.5.5 3.3 1.6.1-.8.8-1.4 1.7-1.4 1.7 0 1.7 1.4 1.7 2.3v8.4zm-6.1-.8c1.8 0 2.7-1.8 2.7-3.5s-.8-3.5-2.7-3.5c-1.9 0-2.7 1.9-2.7 3.5 0 1.7.8 3.5 2.7 3.5zm20.6 1.1c0 1.2-.7 1.9-1.7 1.9s-1.5-.5-1.7-1.4c-.6 1.1-2 1.6-3.2 1.6-3.5 0-5.7-3.2-5.7-6.5 0-3.4 1.8-6.8 5.6-6.8 1.2 0 2.4.4 3.3 1.2v-4.7c0-1.2.7-1.9 1.7-1.9s1.7.8 1.7 1.9v14.7zm-6.2-8.1c-1.8 0-2.7 1.9-2.7 3.5s.9 3.5 2.7 3.5c1.9 0 2.7-1.9 2.7-3.6.1-1.7-.8-3.4-2.7-3.4zm16.9.2h-.8c-.9 0-1.5-.6-1.5-1.5s.6-1.5 1.5-1.5h.8v-2.1c0-1.2.7-1.9 1.7-1.9s1.7.8 1.7 1.9v2.1h1c.9 0 1.7.4 1.7 1.5s-.8 1.5-1.7 1.5h-1v8c0 1.2-.7 1.9-1.7 1.9s-1.7-.8-1.7-1.9v-8zm18.9 3.3c0 3.6-2.5 6.6-6.2 6.6s-6.2-3-6.2-6.6c0-3.5 2.5-6.7 6.2-6.7 3.6 0 6.2 3.2 6.2 6.7zm-9 0c0 1.7.9 3.5 2.7 3.5 1.9 0 2.7-1.8 2.7-3.5s-.8-3.5-2.7-3.5c-1.8 0-2.7 1.9-2.7 3.5zm18.3-4.6c0-1.2.7-1.9 1.7-1.9.9 0 1.5.5 1.6 1.3.8-.9 1.9-1.4 3.2-1.4 1.4 0 2.7.6 3.6 1.8 1-1.1 2.5-1.8 3.6-1.8 2.8 0 4.7 1.6 4.7 4.7v6.6c0 1.2-.7 1.9-1.7 1.9s-1.7-.8-1.7-1.9v-6c0-1.4-.8-2.4-2-2.4-1.3 0-2 1-2 2.4v6c0 1.2-.7 1.9-1.7 1.9s-1.7-.8-1.7-1.9v-6c0-1.4-.8-2.4-2-2.4-1.4 0-2 1-2 2.4v6c0 1.2-.7 1.9-1.7 1.9s-1.7-.8-1.7-1.9v-9.3zm23.9 5.8c.2 1.7 1.7 2.5 3.3 2.5 1.8 0 3-1.4 3.9-1.4.7 0 1.4.7 1.4 1.5 0 1.5-3.1 2.9-5.6 2.9-3.9 0-6.5-2.8-6.5-6.6 0-3.5 2.5-6.7 6.2-6.7s6.2 3.4 6.2 6.3c0 1-.5 1.5-1.5 1.5h-7.4zm5.5-2.3c-.2-1.5-1.2-2.6-2.8-2.6-1.5 0-2.6 1.2-2.7 2.6h5.5z" fill="#104068"/><path fill="#fff" d="M31.3 20.4c0 1.5.8 3 2.1 4.1l-1.9 4.9 6.3-2.7c1.1.3 2.3.4 3.6.4 5.6 0 10.1-3 10.1-6.7s-4.5-6.7-10.1-6.7-10.1 3-10.1 6.7z"/><path fill="#FBAA19" d="M21 25h-5.2v10.3h5.2l7.4 7.2v-24.8z"/><path fill="#104068" d="M21 25h-5.2v10.3h5.2l7.4 7.2v-24.8z"/><path fill="#F36E28" d="M41.1 20.5c0-.4-.1-.7-.1-.9-.1-.2-.2-.5-.4-1-.2-.4-.3-.8-.3-1 0-.3.1-.6.3-.9.2-.2.5-.4.8-.4.3 0 .6.1.8.3.2.2.3.5.3.9 0 .3-.1.6-.3 1-.2.4-.4.7-.4.9-.1.2-.1.5-.1 1 .4-.2.7-.3.8-.4l.8-.7c.4-.5.9-.7 1.3-.7.3 0 .6.1.8.3.2.2.3.4.3.7 0 .3-.1.6-.4.8-.3.2-.6.3-1 .3h-2.5c.3.3.5.6.7.7.2.1.5.3.9.5s.7.4.9.7c.1.2.2.4.2.7 0 .3-.1.6-.3.8-.2.2-.5.3-.7.3-.3 0-.6-.1-.8-.4-.2-.3-.4-.7-.5-1.3-.1-.4-.1-.7-.2-.9-.1-.2-.2-.5-.4-.8-.2.4-.4.7-.5.9-.1.2-.1.5-.2.9-.1.6-.3 1.1-.5 1.3-.2.2-.5.4-.8.4-.3 0-.5-.1-.7-.3-.2-.2-.3-.4-.3-.7 0-.3.1-.5.2-.8.2-.2.5-.5.9-.7.4-.2.7-.4.9-.5.2-.1.4-.3.7-.6h-2.6c-.4 0-.7-.1-1-.3-.3-.2-.4-.5-.4-.8 0-.3.1-.5.3-.7.2-.2.5-.3.8-.3.4 0 .9.2 1.3.6l.8.8.6.3z"/></svg>