<svg xmlns="http://www.w3.org/2000/svg" width="157.051" height="41.039" viewBox="0 0 157.051 41.039"><path fill="#fff" d="M136.989.014l-.265-.014h-116.37l-.234.01c-11.114.215-20.12 9.369-20.12 20.507 0 11.139 9.005 20.295 20.119 20.512l.235.01h116.37l.263-.014c11.086-.244 20.064-9.394 20.064-20.508 0-11.109-8.978-20.257-20.062-20.503z"/><linearGradient id="a" gradientUnits="userSpaceOnUse" x1="78.526" y1="38.539" x2="78.526" y2="2.5"><stop offset="0" stop-color="#CDEAF8"/><stop offset="1" stop-color="#fff"/></linearGradient><path fill="url(#a)" d="M154.551 20.517c0-9.883-7.967-17.902-17.827-18.008v-.009h-116.37v.008c-9.875.088-17.854 8.117-17.854 18.009 0 9.896 7.979 17.924 17.854 18.014v.008h116.37v-.01c9.861-.105 17.827-8.125 17.827-18.012z"/><path fill="#060606" stroke="#060606" stroke-width=".593" d="M18.412 15.98h-4.566v9.075h4.566l6.539 6.418v-21.909z"/><path fill="none" stroke="#000" stroke-width="1.5" stroke-linecap="round" stroke-miterlimit="10" d="M27.854 14.404l8.031-2m-6.031 8h11.031m-13.031 6.002l8.031 2"/><path d="M46.982 14.309c0-.414.18-.612.594-.612h2.936c3.169 0 5.348.829 5.348 3.728 0 1.566-.919 2.665-2.197 3.259l2.755 5.258c.072.144.126.27.126.397 0 .197-.144.306-.414.306h-1.62c-.522 0-.738-.072-.937-.504l-2.413-4.916h-1.62v4.826c0 .414-.18.594-.576.594h-1.387c-.414 0-.594-.18-.594-.594v-11.742zm2.557 1.458v3.402h1.242c1.423 0 2.395-.485 2.395-1.71 0-1.332-1.134-1.692-2.593-1.692h-1.044zm16.004 6.915h-5.744c.126 1.44 1.225 2.394 2.845 2.394 1.477 0 2.071-.559 2.503-.559.181 0 .307.108.324.36l.072.9c.018.324-.108.468-.486.612-.828.324-1.873.468-2.719.468-3.205 0-5.059-1.872-5.059-4.915 0-2.845 1.891-4.79 4.627-4.79 2.989 0 4.34 2.017 4.34 4.916-.001.398-.236.614-.703.614zm-1.622-1.567c-.036-1.333-.738-2.179-1.962-2.179-1.225 0-2.035.864-2.161 2.179h4.123zm10.729-2.791h.071v-.378c0-.396.181-.576.559-.576h1.368c.343 0 .522.18.522.576v8.12c0 .396-.18.576-.522.576h-1.278c-.378 0-.558-.18-.558-.576v-.594h-.072c-.738.954-1.747 1.386-2.935 1.386-2.791 0-4.142-2.322-4.142-4.987 0-2.431 1.513-4.718 4.069-4.718 1.297 0 2.216.397 2.918 1.171zm.09 3.709c0-1.765-.9-2.935-2.269-2.935-1.477 0-2.251 1.368-2.251 2.862 0 1.513.738 2.953 2.232 2.953 1.513.001 2.288-1.313 2.288-2.88zm11.519 3.367c-.647.99-1.71 1.458-2.971 1.458-2.791 0-4.123-2.322-4.123-4.987 0-2.358 1.387-4.718 4.015-4.718 1.333 0 2.323.433 3.008 1.333h.054v-5.186c0-.397.18-.595.558-.595h1.369c.342 0 .521.198.521.595v12.766c0 .396-.18.576-.521.576h-1.242c-.379 0-.559-.18-.559-.576v-.666h-.109zm-.017-3.367c0-1.765-.918-2.935-2.287-2.935-1.476 0-2.232 1.368-2.232 2.862 0 1.513.721 2.953 2.196 2.953 1.459.001 2.323-1.295 2.323-2.88zm9.376-2.808c-.36 0-.541-.181-.541-.576v-.702c0-.396.181-.576.541-.576h1.26v-2.359c0-.414.18-.594.559-.594h1.368c.342 0 .522.18.522.594v2.359h1.692c.36 0 .54.18.54.576v.702c0 .396-.18.576-.54.576h-1.692v3.907c0 1.242.378 1.8 1.188 1.8.469 0 .648-.071.883-.071.18 0 .324.071.324.396v.919c0 .306-.055.432-.342.521-.307.09-.847.162-1.279.162-2.484 0-3.223-1.26-3.223-3.511v-4.123h-1.26zm11.971-2.072c2.719 0 5.006 1.729 5.006 4.862 0 3.114-2.287 4.843-5.006 4.843-2.737 0-5.023-1.728-5.023-4.843 0-3.133 2.286-4.862 5.023-4.862zm0 7.797c1.585 0 2.448-1.44 2.448-2.934 0-1.513-.863-2.953-2.448-2.953-1.603 0-2.467 1.44-2.467 2.953.001 1.494.865 2.934 2.467 2.934zm12.472 1.692c-.342 0-.521-.18-.521-.576v-8.12c0-.396.18-.576.521-.576h1.297c.378 0 .558.18.558.576v.702h.036c.559-.883 1.44-1.495 2.719-1.495 1.621 0 2.539.684 2.989 1.783h.054c.504-.937 1.441-1.783 2.953-1.783 2.575 0 3.277 1.675 3.277 3.836v5.077c0 .396-.181.576-.522.576h-1.368c-.379 0-.559-.18-.559-.576v-4.375c0-1.477-.252-2.485-1.513-2.485-1.548 0-2.017 1.603-2.017 3.314v3.547c0 .396-.18.576-.521.576h-1.369c-.378 0-.558-.18-.558-.576v-4.375c0-1.477-.252-2.485-1.513-2.485-1.44 0-2.017 1.225-2.017 3.169v3.691c0 .396-.18.576-.558.576h-1.368zm24.141-3.96h-5.744c.126 1.44 1.225 2.394 2.845 2.394 1.477 0 2.071-.559 2.503-.559.18 0 .307.108.324.36l.072.9c.018.324-.108.468-.486.612-.828.324-1.873.468-2.719.468-3.205 0-5.059-1.872-5.059-4.915 0-2.845 1.891-4.79 4.627-4.79 2.989 0 4.34 2.017 4.34 4.916-.001.398-.236.614-.703.614zm-1.621-1.567c-.035-1.333-.738-2.179-1.962-2.179-1.225 0-2.035.864-2.161 2.179h4.123z"/></svg>