<svg xmlns="http://www.w3.org/2000/svg" xmlns:xlink="http://www.w3.org/1999/xlink" viewBox="0 0 1024.2 768" enable-background="new 0 0 1024.2 768"><linearGradient id="a" gradientUnits="userSpaceOnUse" x1="512.221" y1=".004" x2="512.221" y2="768.004"><stop offset="0" stop-color="#94D5D4"/><stop offset=".203" stop-color="#98D6D6"/><stop offset=".399" stop-color="#A4DBDA"/><stop offset=".592" stop-color="#B8E2E1"/><stop offset=".783" stop-color="#D3EDEB"/><stop offset=".972" stop-color="#F6FBFB"/><stop offset="1" stop-color="#fff"/></linearGradient><path fill="url(#a)" d="M.2 0h1024v768h-1024z"/><defs><path id="b" d="M1023.7 709.6l-1023.7-.3.2-709.3 1024 .3z"/></defs><clipPath id="c"><use xlink:href="#b" overflow="visible"/></clipPath><path d="M517.8 709.7l619.1-12.2 3.4-121.1zm605.4-259.9l-605.4 259.9 596.3-453.7zm-605.4 259.9l600.8-620.7-4.5-109-92.4 2.7zm0 0l354.5-732.4-143.6-5.4zm0 0l71.8-739.1-139.1-4.1zm0 0l-185.9-732.4-155.1-5.4zm0 0l-466.4-736.4-127.7 6.6 3.4 28.4zm0 0l-606.6-539.9-2.3 157.5zm0 0l-602.1-219.5v160.2z" opacity=".2" clip-path="url(#c)" fill="#fff"/><defs><path id="d" d="M0 0h1024v668.1h-1024z"/></defs><clipPath><use xlink:href="#d" overflow="visible"/></clipPath></svg>