<svg xmlns="http://www.w3.org/2000/svg" viewBox="0 0 96.7 53.3" enable-background="new 0 0 96.7 53.3"><linearGradient id="a" gradientUnits="userSpaceOnUse" x1="452.952" y1="2.808" x2="452.952" y2="50.312" gradientTransform="matrix(-1 0 0 1 501.856 0)"><stop offset="0" stop-color="#A5DFF9"/><stop offset=".995" stop-color="#3EC1CD"/></linearGradient><path fill="url(#a)" stroke="#fff" stroke-width="3" stroke-miterlimit="10" d="M95.2 10.6l-59.2 1.9-.5-9.7-32.9 23.5 32.9 24v-8.7l59.7 2.4z"/><path d="M28.5 20.4c0-1.2.8-1.8 1.9-1.8h4.6c2.5 0 4.5 1.7 4.5 4.2 0 1.7-.7 2.8-2.2 3.5 2 .3 3.6 2 3.6 4.1 0 3.4-2.3 5.2-5.6 5.2h-4.9c-1.1 0-1.9-.7-1.9-1.8v-13.4zm3.6 4.9h1.9c1.2 0 1.9-.7 1.9-1.9 0-1.1-.9-1.7-1.9-1.7h-1.9v3.6zm0 7.2h2.8c1.3 0 2.3-.7 2.3-2.1 0-1.1-.9-1.9-2.5-1.9h-2.5v4zm22.6 1c0 .9 0 2.3-1.7 2.3-1 0-1.4-.6-1.7-1.5-.9 1.1-2 1.6-3.3 1.6-3.2 0-5.7-2.8-5.7-6.6s2.5-6.7 5.7-6.7c1.3 0 2.5.5 3.3 1.6.1-.8.8-1.4 1.7-1.4 1.7 0 1.7 1.4 1.7 2.3v8.4zm-6.1-.7c1.8 0 2.7-1.8 2.7-3.5s-.8-3.5-2.7-3.5c-1.9 0-2.7 1.9-2.7 3.5 0 1.7.8 3.5 2.7 3.5zm17.4-6.4c-.9 0-1.6-.7-2.7-.7-2 0-2.9 1.8-2.9 3.5s1 3.5 2.9 3.5c.9 0 2.2-.7 2.6-.7.8 0 1.5.7 1.5 1.5 0 1.8-3 2.4-4.2 2.4-3.7 0-6.2-3-6.2-6.6 0-3.5 2.5-6.7 6.2-6.7 1.4 0 4.2.5 4.2 2.2-.1.7-.6 1.6-1.4 1.6zm3.2-7.3c0-1.2.7-1.9 1.7-1.9s1.7.8 1.7 1.9v8.1l3.8-3.7c.6-.5 1.1-.7 1.6-.7.9 0 1.5.8 1.5 1.6 0 .5-.2.9-.7 1.4l-3.1 2.7 4.1 4.8c.3.4.4.8.4 1.2 0 .9-.7 1.6-1.6 1.6-.6 0-1.1-.4-1.7-1.1l-4.2-5.2v4.2c0 1.2-.7 1.9-1.7 1.9s-1.7-.8-1.7-1.9v-14.9z" fill="#104068"/></svg>