<svg xmlns="http://www.w3.org/2000/svg" viewBox="0 0 225.23 55.222" enable-background="new 0 0 225.23 55.222"><path d="M197.621 1.503c-.469 0-.934.014-1.396.038v-.041h-169.225v.018c-14.138.325-25.5 11.88-25.5 26.095 0 14.215 11.362 25.769 25.5 26.093v.013h.492l.116.003.116-.003h168.5v-.035c.463.024.928.038 1.396.038 14.42 0 26.108-11.689 26.108-26.108.002-14.42-11.687-26.111-26.107-26.111z" fill="#D8F0FC" stroke="#fff" stroke-width="3" stroke-miterlimit="10"/><path d="M55.607 34.236l-3.492-11.234-1.045.036-.467-1.627-.159-.518-.175-.512-.193-.503-.209-.497c-.365.011-.718.055-1.078.081l-.771-2.871c-1.535.143-3.072.486-4.549.996-1.475.506-2.886 1.181-4.17 1.99-1.28.808-2.434 1.753-3.396 2.799-.961 1.047-1.729 2.196-2.24 3.42-.516-1.224-1.285-2.373-2.243-3.42-.962-1.046-2.116-1.991-3.398-2.799-1.284-.81-2.694-1.484-4.169-1.99-1.476-.51-3.014-.853-4.549-.996l-.772 2.871c-.36-.025-.713-.07-1.078-.081l-.21.497-.191.504-.176.51-.16.519-.469 1.627-1.042-.036-3.493 11.234v.91l1.39.045c.229.01.483.022.763.045.278.021.582.05.905.084l1.021.124c.36.049.733.103 1.119.165.578.09 1.188.195 1.812.311.626.118 1.271.249 1.923.39.651.142 1.312.295 1.969.458.656.163 1.313.337 1.956.521.323.091.642.186.956.283.315.096.625.194.929.295l.894.307.852.316c.277.106.547.216.805.327.26.108.508.22.746.332.237.111.463.224.678.336.214.113.413.228.602.341l.315.159.332.114.345.068.355.023h2.555l.358-.023.346-.068.333-.116.317-.162c.249-.148.523-.3.816-.449.297-.149.612-.298.948-.446.337-.145.69-.292 1.058-.436.369-.143.751-.283 1.148-.419.593-.206 1.212-.404 1.844-.596.636-.189 1.284-.369 1.94-.539.654-.171 1.316-.331 1.972-.481.655-.148 1.308-.285 1.943-.411l.943-.18.913-.16.875-.139.832-.119.773-.099.715-.074.643-.053.559-.03 1.389-.045v-.91l.007.001z" fill="#fff"/><path d="M55.607 34.236l-3.492-11.234-1.045.036-.467-1.627-.159-.518-.175-.512-.193-.503-.209-.497c-.365.011-.718.055-1.078.081l-.771-2.871c-1.535.143-3.072.486-4.549.996-1.475.506-2.886 1.181-4.17 1.99-1.28.808-2.434 1.753-3.396 2.799-.961 1.047-1.729 2.196-2.24 3.42-.516-1.224-1.285-2.373-2.243-3.42-.962-1.046-2.116-1.991-3.398-2.799-1.284-.81-2.694-1.484-4.169-1.99-1.476-.51-3.014-.853-4.549-.996l-.772 2.871c-.36-.025-.713-.07-1.078-.081l-.21.497-.191.504-.176.51-.16.519-.469 1.627-1.042-.036-3.493 11.234v.91l1.39.045c.229.01.483.022.763.045.278.021.582.05.905.084l1.021.124c.36.049.733.103 1.119.165.578.09 1.188.195 1.812.311.626.118 1.271.249 1.923.39.651.142 1.312.295 1.969.458.656.163 1.313.337 1.956.521.323.091.642.186.956.283.315.096.625.194.929.295l.894.307.852.316c.277.106.547.216.805.327.26.108.508.22.746.332.237.111.463.224.678.336.214.113.413.228.602.341l.315.159.332.114.345.068.355.023h2.555l.358-.023.346-.068.333-.116.317-.162c.249-.148.523-.3.816-.449.297-.149.612-.298.948-.446.337-.145.69-.292 1.058-.436.369-.143.751-.283 1.148-.419.593-.206 1.212-.404 1.844-.596.636-.189 1.284-.369 1.94-.539.654-.171 1.316-.331 1.972-.481.655-.148 1.308-.285 1.943-.411l.943-.18.913-.16.875-.139.832-.119.773-.099.715-.074.643-.053.559-.03 1.389-.045v-.91l.007.001z" fill="none" stroke="#104068" stroke-width="1.415"/><path d="M55.599 35.146l-1.389.045-.56.03-.643.053-.715.074-.773.099-.832.119-.875.139-.913.16-.943.18c-.636.126-1.288.263-1.943.411-.655.149-1.317.31-1.972.48-.656.17-1.305.35-1.94.539-.632.191-1.251.39-1.844.596-.397.136-.778.276-1.148.419-.368.144-.722.29-1.058.436-.336.148-.651.297-.948.446-.294.149-.567.301-.816.449l-.317.162-.333.116-.346.068-.358.022h-2.555l-.355-.022-.345-.068-.332-.114-.315-.159c-.189-.113-.388-.228-.602-.341-.215-.112-.44-.225-.678-.336-.238-.112-.486-.224-.746-.332-.258-.111-.527-.221-.805-.327l-.852-.316-.894-.307c-.304-.101-.613-.199-.929-.295-.315-.098-.633-.192-.956-.283-.643-.184-1.3-.357-1.956-.521-.657-.163-1.317-.316-1.969-.458-.652-.141-1.297-.271-1.923-.39-.624-.116-1.233-.222-1.812-.311-.386-.062-.759-.116-1.119-.165l-1.022-.124c-.323-.034-.627-.063-.905-.084-.279-.023-.534-.035-.763-.045l-1.39-.045v-.91h43.887v.91z" fill="#0C3854"/><path d="M33.662 28.57l-17.28-5.527-1.177-.041-3.493 11.234 1.673.057.568.031.686.058.744.081.801.102.859.124.904.146.943.165.967.188c.656.13 1.324.273 1.998.428.674.155 1.352.32 2.026.499.677.177 1.346.366 2.005.565.658.199 1.303.409 1.925.626.409.144.809.292 1.193.441.389.154.764.309 1.126.468.358.158.706.321 1.034.49.331.168.642.339.937.516l.165.097h2.788l.164-.097c.294-.177.605-.348.936-.516.329-.169.677-.331 1.036-.49.36-.159.736-.314 1.124-.468.387-.148.785-.298 1.195-.441.621-.217 1.267-.427 1.924-.626.658-.199 1.328-.389 2.004-.565.675-.179 1.354-.344 2.027-.499.674-.154 1.344-.298 1.998-.428l.968-.188.941-.165.906-.146.861-.124.797-.102.746-.081.685-.057.569-.032 1.672-.057-3.492-11.234-1.178.041-17.275 5.527zm0 0l-17.28-5.527-1.177-.041-3.493 11.234 1.673.057.568.031.686.058.744.081.801.102.859.124.904.146.943.165.967.188c.656.13 1.324.273 1.998.428.674.155 1.352.32 2.026.499.677.177 1.346.366 2.005.565.658.199 1.303.409 1.925.626.409.144.809.292 1.193.441.389.154.764.309 1.126.468.358.158.706.321 1.034.49.331.168.642.339.937.516l.165.097h2.788l.164-.097c.294-.177.605-.348.936-.516.329-.169.677-.331 1.036-.49.36-.159.736-.314 1.124-.468.387-.148.785-.298 1.195-.441.621-.217 1.267-.427 1.924-.626.658-.199 1.328-.389 2.004-.565.675-.179 1.354-.344 2.027-.499.674-.154 1.344-.298 1.998-.428l.968-.188.941-.165.906-.146.861-.124.797-.102.746-.081.685-.057.569-.032 1.672-.057-3.492-11.234-1.178.041-17.275 5.527zm17.237-5.526l-.743.045c-.264.021-.543.048-.836.081l-.911.113c-.319.042-.646.093-.983.146-.514.085-1.051.18-1.603.285-.552.105-1.118.224-1.692.351-.574.127-1.154.265-1.735.413-.58.146-1.16.305-1.733.472l-.853.259-.833.268-.811.284-.784.298-.733.305-.697.318-.657.332c-.211.113-.415.229-.611.347h-2.044c-.263-.158-.542-.312-.832-.461-.289-.149-.592-.295-.907-.436-.317-.142-.642-.277-.979-.411-.336-.132-.681-.261-1.034-.387-.537-.192-1.094-.373-1.659-.548-.566-.172-1.142-.336-1.722-.489-.58-.155-1.162-.3-1.739-.434-.578-.135-1.15-.258-1.712-.37l-.831-.162-.809-.145-.776-.127-.742-.109-.689-.087-.648-.07-.608-.052-.569-.03-3.07 10.555.671.037.717.06.764.082.813.102.873.127.916.147.949.168.979.188c.663.131 1.337.276 2.019.432.68.156 1.366.324 2.048.504.683.18 1.36.371 2.028.572.666.202 1.32.413 1.953.637.416.146.824.297 1.218.451.397.153.78.313 1.151.477.369.163.728.332 1.07.506.342.175.667.354.979.538h2.404c.231-.137.47-.271.721-.403.249-.133.508-.26.771-.387.267-.126.54-.249.821-.37.281-.121.568-.239.864-.356.303-.118.608-.234.922-.346.313-.113.633-.223.956-.33l.981-.314c.331-.104.666-.202 1.003-.3.675-.193 1.357-.378 2.041-.551.685-.17 1.37-.331 2.045-.479.675-.149 1.343-.286 1.993-.408.649-.124 1.282-.233 1.887-.332l1.159-.17c.372-.051.732-.094 1.075-.134l.982-.092c.31-.024.604-.043.876-.053l-3.064-10.557z" fill="#104068"/><radialGradient id="a" cx="-554.969" cy="-1007.566" r="67.09" gradientTransform="matrix(.358 0 0 .358 232.617 398.715)" gradientUnits="userSpaceOnUse"><stop offset="0" stop-color="#D3DEF1"/><stop offset=".923" stop-color="#DCE5F4"/><stop offset="1" stop-color="#DDE6F5"/></radialGradient><path d="M33.662 25.797l-16.209-6.415-.21.497-.191.504-.176.51-.16.519s-3.288 11.405-3.356 11.727l.644.036.701.058.761.082.811.102.873.128.916.148.949.167c-7.058-1.301-6.073-1.221.979.189.663.131 1.337.275 2.019.431.68.157 1.366.324 2.048.505.683.179 1.36.37 2.028.572.666.202 1.32.414 1.953.636.416.146.824.297 1.218.45.397.156.78.315 1.151.478.369.165.728.334 1.07.508.342.172.667.353.979.537h2.404c.231-.138.47-.274.721-.403.249-.132.508-.26.771-.387.267-.125.54-.249.821-.37.281-.122.568-.24.864-.356.303-.117.608-.233.922-.345.313-.114.633-.224.956-.331l.981-.315c.331-.103.666-.202 1.003-.299.675-.194 1.357-.378 2.041-.55.685-.171 1.37-.332 2.045-.479.675-.15 1.343-.286 1.993-.408.649-.125 1.282-.233 1.887-.332.4-.062.786-.121 1.159-.17.372-.052.732-.097 1.075-.133.344-.038.672-.069.982-.093.31-.025.604-.043.876-.054-.018-.088-3.358-11.727-3.358-11.727l-.159-.518-.175-.512-.193-.503-.209-.497-16.205 6.413z" fill="url(#a)"/><path fill="#E9EEF8" d="M34.635 27.389v-.001zm-2.122 11.268z"/><linearGradient id="b" gradientUnits="userSpaceOnUse" x1="52.758" y1="28.442" x2="33.622" y2="28.442"><stop offset="0" stop-color="#fff"/><stop offset=".422" stop-color="#F2F5FB"/><stop offset="1" stop-color="#DDE6F5"/></linearGradient><path d="M33.662 37.503v-11.172l.089-.108.091-.105.097-.107.095-.104c.855-.941 1.856-1.808 2.984-2.58 1.129-.773 2.381-1.452 3.731-2.019 1.354-.567 2.807-1.024 4.336-1.354 1.526-.326 3.13-.524 4.782-.572l2.891 10.024c-1.947.059-3.837.289-5.64.67-1.799.381-3.513.916-5.107 1.577-1.593.663-3.067 1.453-4.397 2.353-1.327.9-2.506 1.907-3.516 3.002l-.111.123-.109.123-.109.124-.107.125" fill="url(#b)"/><linearGradient id="c" gradientUnits="userSpaceOnUse" x1="14.563" y1="28.442" x2="33.622" y2="28.442"><stop offset="0" stop-color="#fff"/><stop offset=".422" stop-color="#F2F5FB"/><stop offset="1" stop-color="#DDE6F5"/></linearGradient><path d="M14.563 29.405l2.891-10.024c1.651.049 3.255.246 4.783.572 1.527.329 2.981.786 4.335 1.354 1.352.566 2.604 1.246 3.732 2.019 1.126.772 2.129 1.639 2.983 2.58l.095.104.096.107.092.105.093.108v11.172l-.108-.125-.109-.124-.111-.123-.111-.123c-1.008-1.095-2.188-2.103-3.515-3.002-1.33-.9-2.805-1.69-4.398-2.353-1.595-.661-3.309-1.195-5.108-1.577-1.805-.381-3.692-.611-5.64-.67" fill="url(#c)"/><linearGradient id="d" gradientUnits="userSpaceOnUse" x1="33.662" y1="26.736" x2="50.587" y2="26.736"><stop offset="0" stop-color="#E9EEF8"/><stop offset=".203" stop-color="#F4F7FC"/><stop offset=".502" stop-color="#FCFDFE"/><stop offset="1" stop-color="#fff"/></linearGradient><path d="M33.662 36.88v-11.083c.512-1.224 1.279-2.373 2.24-3.42.963-1.046 2.116-1.991 3.396-2.799 1.284-.81 2.695-1.484 4.17-1.99 1.477-.51 3.014-.853 4.549-.996l2.569 9.559c-1.812.169-3.624.567-5.364 1.161-1.74.592-3.405 1.379-4.917 2.322-1.511.944-2.871 2.044-4.003 3.266-1.132 1.217-2.036 2.557-2.64 3.98" fill="url(#d)"/><g enable-background="new"><linearGradient id="e" gradientUnits="userSpaceOnUse" x1="16.732" y1="26.736" x2="33.662" y2="26.736"><stop offset="0" stop-color="#fff"/><stop offset=".802" stop-color="#FDFEFF"/><stop offset="1" stop-color="#FAFDFF"/></linearGradient><path d="M16.732 26.151l2.57-9.559c1.535.143 3.073.486 4.549.996 1.475.506 2.885 1.181 4.169 1.99 1.282.808 2.437 1.753 3.398 2.799.958 1.047 1.728 2.196 2.243 3.42v11.083c-.607-1.423-1.512-2.763-2.643-3.98-1.134-1.222-2.493-2.321-4.004-3.266-1.514-.943-3.178-1.73-4.918-2.322-1.739-.593-3.553-.992-5.364-1.161" fill="url(#e)"/></g><g opacity=".5"><radialGradient id="f" cx="-500.675" cy="-1015.059" r="48.714" gradientTransform="matrix(.358 0 0 .358 232.617 398.715)" gradientUnits="userSpaceOnUse"><stop offset="0" stop-color="#fff"/><stop offset=".422" stop-color="#F2F5FB"/><stop offset="1" stop-color="#DDE6F5"/></radialGradient><path d="M34.188 37.38l.087-.075c3.348-2.897 9.871-6.333 18.879-6.771l.114-.005.013.231-.118.005c-8.95.434-15.431 3.853-18.735 6.715l-.085.075-.155-.175z" fill="url(#f)"/><radialGradient id="g" cx="-500.677" cy="-1015.055" r="48.712" gradientTransform="matrix(.358 0 0 .358 232.617 398.715)" gradientUnits="userSpaceOnUse"><stop offset="0" stop-color="#fff"/><stop offset=".422" stop-color="#F2F5FB"/><stop offset="1" stop-color="#DDE6F5"/></radialGradient><path d="M34.447 37.755l.092-.07c3.455-2.554 10.755-5.403 19.015-5.907v.003l.115-.008.015.23-.116.005c-8.214.499-15.493 3.345-18.89 5.862l-.093.07-.138-.185z" fill="url(#g)"/><radialGradient id="h" cx="988.267" cy="-1015.058" r="48.707" gradientTransform="matrix(-.358 0 0 .358 368.49 398.715)" gradientUnits="userSpaceOnUse"><stop offset="0" stop-color="#fff"/><stop offset=".422" stop-color="#F2F5FB"/><stop offset="1" stop-color="#DDE6F5"/></radialGradient><path d="M33.132 37.38l-.087-.075c-3.348-2.897-9.871-6.333-18.878-6.77l-.116-.005-.011.23.116.005c8.951.434 15.432 3.853 18.736 6.715l.086.075.154-.175z" fill="url(#h)"/><radialGradient id="i" cx="988.264" cy="-1015.055" r="48.712" gradientTransform="matrix(-.358 0 0 .358 368.49 398.715)" gradientUnits="userSpaceOnUse"><stop offset="0" stop-color="#fff"/><stop offset=".422" stop-color="#F2F5FB"/><stop offset="1" stop-color="#DDE6F5"/></radialGradient><path d="M32.874 37.755l-.091-.07c-3.455-2.554-10.755-5.403-19.017-5.907v.003l-.115-.008-.014.23.116.005c8.212.499 15.492 3.345 18.891 5.862l.092.07.138-.185z" fill="url(#i)"/></g><path d="M50.587 26.151c-1.812.169-3.624.567-5.364 1.161-1.74.592-3.405 1.379-4.917 2.322-1.511.944-2.871 2.044-4.003 3.266-1.133 1.217-2.037 2.557-2.641 3.98-.607-1.423-1.512-2.763-2.643-3.98-1.134-1.222-2.493-2.321-4.004-3.266-1.514-.943-3.178-1.73-4.918-2.322-1.74-.594-3.555-.992-5.365-1.161l-.037.449c1.768.162 3.54.551 5.242 1.13 1.698.579 3.327 1.347 4.806 2.269 1.478.918 2.806 1.987 3.911 3.17 1.101 1.179 1.982 2.472 2.567 3.839l.111.123.111.123.109.124.108.125.105-.125.109-.124.109-.123.111-.123c.585-1.367 1.467-2.66 2.568-3.839 1.105-1.183 2.434-2.252 3.911-3.171 1.479-.921 3.107-1.688 4.806-2.268 1.702-.58 3.476-.972 5.242-1.134l-.034-.445z" fill="#fff"/><path d="M39.874 25.758c1.578 1.985 7.18 9.171 7.475 11.1-1.285 1.748-5.491 4.61-7.593 5.487-2.161-3.328-4.206-6.775-6.482-9.868-2.745 3.093-4.613 6.247-6.483 9.868-2.218-1.929-6.25-5.955-8.061-8.526 1.988-3.211 5.843-6.014 8.588-8.701-1.811-2.159-4.79-5.024-7.126-6.835 1.694-2.741 5.021-5.429 8-6.598 1.81 2.508 3.677 4.79 5.607 7.067 2.105-2.277 3.97-5.023 6.308-7.067 2.336.7 6.713 5.487 8.061 7.827-2.63 1.751-6.134 4.202-8.294 6.246z" fill="#ED1F24"/><path d="M84.018 19.234c1.752 0 5.16.576 5.16 2.688 0 .864-.6 1.608-1.488 1.608-.984 0-1.656-.84-3.672-.84-2.977 0-4.513 2.519-4.513 5.448 0 2.856 1.561 5.305 4.513 5.305 2.016 0 2.832-1.009 3.816-1.009 1.08 0 1.584 1.08 1.584 1.633 0 2.304-3.625 2.832-5.4 2.832-4.873 0-8.257-3.864-8.257-8.833 0-4.991 3.36-8.832 8.257-8.832zm7.655.817c0-1.152.72-1.92 1.728-1.92s1.729.768 1.729 1.92v14.785c0 1.152-.721 1.92-1.729 1.92s-1.728-.767-1.728-1.92v-14.785zm17.976 10.201c0 3.601-2.473 6.648-6.192 6.648-3.721 0-6.192-3.048-6.192-6.648 0-3.505 2.544-6.697 6.192-6.697s6.192 3.192 6.192 6.697zm-8.928 0c0 1.656.864 3.48 2.736 3.48s2.736-1.824 2.736-3.48-.841-3.528-2.736-3.528c-1.896 0-2.736 1.872-2.736 3.528zm18.383-2.664c-.648 0-1.969-1.009-3.097-1.009-.624 0-1.176.288-1.176.96 0 1.608 6.001 1.368 6.001 5.305 0 2.305-1.944 4.057-4.921 4.057-1.944 0-4.824-1.104-4.824-2.664 0-.528.528-1.536 1.488-1.536 1.344 0 1.943 1.176 3.576 1.176 1.056 0 1.368-.336 1.368-.984 0-1.584-6.001-1.344-6.001-5.304 0-2.4 1.944-4.033 4.681-4.033 1.704 0 4.32.793 4.32 2.497.002.791-.598 1.535-1.415 1.535zm6.457 3.792c.24 1.704 1.656 2.496 3.264 2.496 1.776 0 3.001-1.392 3.913-1.392.744 0 1.416.743 1.416 1.487 0 1.488-3.072 2.929-5.641 2.929-3.889 0-6.48-2.832-6.48-6.648 0-3.505 2.544-6.697 6.192-6.697 3.744 0 6.217 3.409 6.217 6.289 0 1.032-.456 1.536-1.513 1.536h-7.368zm5.423-2.305c-.191-1.512-1.151-2.64-2.76-2.64-1.536 0-2.568 1.176-2.736 2.64h5.496zm12.552-9.024c0-1.152.72-1.92 1.727-1.92 1.009 0 1.729.768 1.729 1.92v4.704c.912-.792 2.088-1.2 3.288-1.2 3.721 0 5.568 3.48 5.568 6.841 0 3.265-2.208 6.505-5.689 6.505-1.176 0-2.52-.528-3.168-1.584-.216.912-.769 1.439-1.729 1.439-1.008 0-1.727-.767-1.727-1.92v-14.785zm6.168 13.681c1.801 0 2.688-1.872 2.688-3.48 0-1.633-.888-3.528-2.688-3.528-1.848 0-2.712 1.728-2.712 3.408s.817 3.6 2.712 3.6zm20.208-3.48c0 3.601-2.473 6.648-6.192 6.648-3.721 0-6.192-3.048-6.192-6.648 0-3.505 2.544-6.697 6.192-6.697s6.192 3.192 6.192 6.697zm-8.929 0c0 1.656.864 3.48 2.736 3.48s2.736-1.824 2.736-3.48-.841-3.528-2.736-3.528c-1.896 0-2.736 1.872-2.736 3.528zm22.994 0c0 3.601-2.473 6.648-6.192 6.648-3.721 0-6.192-3.048-6.192-6.648 0-3.505 2.544-6.697 6.192-6.697s6.192 3.192 6.192 6.697zm-8.929 0c0 1.656.864 3.48 2.736 3.48 1.872 0 2.736-1.824 2.736-3.48s-.841-3.528-2.736-3.528c-1.896 0-2.736 1.872-2.736 3.528zm11.111-10.201c0-1.152.72-1.92 1.728-1.92 1.009 0 1.729.768 1.729 1.92v8.064l3.792-3.672c.553-.528 1.105-.744 1.561-.744.864 0 1.464.792 1.464 1.561 0 .504-.168.912-.672 1.367l-3.072 2.736 4.057 4.753c.312.36.432.768.432 1.152 0 .912-.72 1.632-1.632 1.632-.624 0-1.104-.384-1.656-1.057l-4.225-5.208h-.048v4.2c0 1.152-.72 1.92-1.729 1.92-1.008 0-1.728-.767-1.728-1.92v-14.784z" fill="#104068"/></svg>