<svg xmlns="http://www.w3.org/2000/svg" viewBox="0 0 205.228 55.222" enable-background="new 0 0 205.228 55.222"><path d="M177.619 1.503c-.469 0-.934.014-1.396.038v-.041h-149.223v.018c-14.138.325-25.5 11.88-25.5 26.095 0 14.215 11.362 25.769 25.5 26.093v.013h.493l.116.003.116-.003h148.499v-.035c.463.025.928.038 1.396.038 14.42 0 26.108-11.689 26.108-26.108 0-14.42-11.689-26.111-26.109-26.111z" fill="#D8F0FC" stroke="#fff" stroke-width="3" stroke-miterlimit="10"/><path d="M60.733 21.485c0-1.151.648-1.872 1.849-1.872h4.224c3.696 0 5.977 1.656 5.977 5.425 0 2.641-1.992 4.152-4.44 4.536l4.08 4.369c.336.359.48.72.48 1.056 0 .937-.744 1.848-1.8 1.848-.433 0-1.009-.168-1.393-.624l-5.328-6.456h-.049v5.208c0 1.2-.768 1.872-1.799 1.872-1.032 0-1.801-.672-1.801-1.872v-13.49zm3.6 5.689h2.473c1.32 0 2.232-.792 2.232-2.136 0-1.368-.912-2.112-2.232-2.112h-2.473v4.248zm13.153 4.297c.239 1.704 1.655 2.496 3.264 2.496 1.776 0 3-1.392 3.913-1.392.745 0 1.417.743 1.417 1.487 0 1.488-3.074 2.929-5.642 2.929-3.889 0-6.481-2.832-6.481-6.649 0-3.505 2.545-6.696 6.193-6.696 3.744 0 6.218 3.408 6.218 6.288 0 1.032-.456 1.536-1.513 1.536h-7.369zm5.424-2.305c-.191-1.512-1.152-2.64-2.76-2.64-1.536 0-2.568 1.176-2.736 2.64h5.496zm17.21 5.425c0 .889 0 2.256-1.656 2.256-1.008 0-1.416-.552-1.655-1.464-.889 1.057-1.969 1.608-3.289 1.608-3.24 0-5.713-2.761-5.713-6.649 0-3.793 2.545-6.696 5.713-6.696 1.272 0 2.521.504 3.289 1.584.096-.841.815-1.44 1.655-1.44 1.656 0 1.656 1.368 1.656 2.256v8.545zm-6.121-.768c1.801 0 2.665-1.824 2.665-3.481 0-1.656-.84-3.528-2.665-3.528-1.896 0-2.735 1.872-2.735 3.528 0 1.657.863 3.481 2.735 3.481zm20.616 1.104c0 1.152-.719 1.92-1.728 1.92-.96 0-1.513-.527-1.728-1.439-.648 1.056-1.992 1.584-3.169 1.584-3.479 0-5.688-3.24-5.688-6.505 0-3.36 1.849-6.84 5.568-6.84 1.2 0 2.377.407 3.289 1.199v-4.704c0-1.152.719-1.92 1.728-1.92s1.728.768 1.728 1.92v14.785zm-6.168-8.113c-1.801 0-2.688 1.896-2.688 3.528 0 1.608.887 3.481 2.688 3.481 1.896 0 2.713-1.921 2.713-3.601s-.865-3.408-2.713-3.408zm16.848.144h-.769c-.937 0-1.513-.576-1.513-1.512 0-.864.648-1.513 1.513-1.513h.769v-2.063c0-1.152.72-1.921 1.728-1.921 1.009 0 1.728.768 1.728 1.921v2.063h.984c.889 0 1.656.408 1.656 1.513 0 1.08-.768 1.512-1.656 1.512h-.984v7.969c0 1.152-.719 1.92-1.728 1.92-1.008 0-1.728-.767-1.728-1.92v-7.969zm18.863 3.385c0 3.601-2.473 6.649-6.191 6.649-3.721 0-6.192-3.048-6.192-6.649 0-3.505 2.544-6.696 6.192-6.696 3.648-.001 6.191 3.191 6.191 6.696zm-8.928 0c0 1.656.863 3.481 2.736 3.481 1.871 0 2.736-1.824 2.736-3.481 0-1.656-.842-3.528-2.736-3.528-1.896-.001-2.736 1.872-2.736 3.528zm18.262-4.633c0-1.152.721-1.92 1.729-1.92.889 0 1.465.48 1.584 1.296.84-.912 1.943-1.439 3.217-1.439 1.439 0 2.663.6 3.575 1.752.96-1.104 2.473-1.752 3.648-1.752 2.809 0 4.729 1.632 4.729 4.656v6.624c0 1.152-.72 1.92-1.729 1.92-1.008 0-1.728-.767-1.728-1.92v-6.024c0-1.392-.768-2.376-2.017-2.376-1.272 0-2.04.984-2.04 2.376v6.024c0 1.152-.72 1.92-1.729 1.92-1.008 0-1.727-.767-1.727-1.92v-6.024c0-1.392-.77-2.376-2.018-2.376-1.416 0-2.039.984-2.039 2.376v6.024c0 1.152-.721 1.92-1.728 1.92-1.008 0-1.729-.767-1.729-1.92v-9.217zm23.951 5.761c.24 1.704 1.656 2.496 3.264 2.496 1.777 0 3.001-1.392 3.913-1.392.744 0 1.416.743 1.416 1.487 0 1.488-3.072 2.929-5.64 2.929-3.889 0-6.48-2.832-6.48-6.649 0-3.505 2.543-6.696 6.191-6.696 3.744 0 6.217 3.408 6.217 6.288 0 1.032-.456 1.536-1.513 1.536h-7.368zm5.424-2.305c-.191-1.512-1.15-2.64-2.76-2.64-1.535 0-2.568 1.176-2.736 2.64h5.496z" fill="#104068"/><path d="M31.313 20.428c0 1.546.788 2.97 2.111 4.105l-1.876 4.895 6.286-2.723c1.121.283 2.336.438 3.606.438 5.594 0 10.127-3.006 10.127-6.716 0-3.709-4.533-6.716-10.127-6.716-5.593.001-10.127 3.008-10.127 6.717z" fill="#fff"/><path fill="#104068" d="M20.982 24.975h-5.17v10.279h5.17l7.407 7.267v-24.814z"/><path d="M41.118 20.484c-.022-.41-.062-.72-.123-.932-.06-.212-.204-.54-.432-.984-.23-.444-.344-.79-.344-1.037 0-.324.114-.609.344-.856.228-.247.48-.371.756-.371.303 0 .566.115.789.344.222.23.333.528.333.896 0 .288-.109.638-.328 1.047-.219.409-.358.722-.418.937-.061.215-.107.534-.143.958.395-.163.677-.304.847-.424.169-.119.42-.356.751-.709.444-.473.871-.709 1.281-.709.31 0 .571.103.783.307.212.205.317.448.317.73 0 .304-.13.571-.391.805-.261.233-.599.349-1.016.349-.141 0-.391-.011-.752-.032l-.55-.011c-.261 0-.656.015-1.186.043.303.346.54.584.709.714.169.131.462.302.878.514.417.212.716.438.899.678.135.176.201.401.201.677 0 .304-.103.559-.307.768-.204.208-.452.313-.741.313-.303 0-.576-.126-.82-.376-.243-.251-.411-.697-.502-1.339-.057-.416-.119-.72-.185-.91-.067-.191-.21-.469-.429-.836-.232.374-.388.663-.465.868-.078.204-.145.496-.201.878-.092.642-.254 1.083-.487 1.322-.233.24-.504.36-.815.36-.289 0-.538-.1-.746-.297-.208-.196-.312-.434-.312-.709 0-.281.079-.534.238-.756.158-.223.452-.452.878-.688.427-.235.722-.414.884-.533.162-.121.398-.336.709-.646l-1.132-.047-.561.011c-.417.029-.702.043-.857.043-.402 0-.73-.113-.984-.339-.254-.226-.381-.493-.381-.804 0-.289.104-.538.313-.746.207-.208.471-.313.788-.313.445 0 .871.212 1.281.635.409.424.674.682.793.773.168.12.447.265.836.434z" fill="#F36E28"/></svg>