<svg xmlns="http://www.w3.org/2000/svg" width="41.826" height="41.827" viewBox="0 0 41.826 41.827"><path fill="#fff" d="M41.826 20.912c0 11.55-9.366 20.915-20.915 20.915s-20.911-9.365-20.911-20.915c0-11.546 9.362-20.912 20.911-20.912 11.549 0 20.915 9.366 20.915 20.912z"/><linearGradient id="a" gradientUnits="userSpaceOnUse" x1="20.913" y1="38.934" x2="20.913" y2="2.894"><stop offset="0" stop-color="#66BC46"/><stop offset="1" stop-color="#C1D958"/></linearGradient><path fill="url(#a)" d="M38.933 20.912c0 9.952-8.07 18.022-18.022 18.022-9.951 0-18.018-8.069-18.018-18.022 0-9.948 8.067-18.018 18.018-18.018 9.952 0 18.022 8.07 18.022 18.018z"/><path d="M31.694 9.975c-3.145-3.142-8.243-3.142-11.388 0-3.145 3.149-3.145 8.246 0 11.393 3.144 3.144 8.243 3.144 11.388 0 3.145-3.147 3.145-8.245 0-11.393zm-9.662 9.663c-2.189-2.19-2.189-5.74 0-7.932 2.192-2.19 5.744-2.19 7.934 0 2.191 2.188 2.191 5.741 0 7.932-2.191 2.191-5.742 2.191-7.934 0zm-10.466 13.703l10.235-11.27-2.315-2.317-11.274 10.233 3.354 3.354zm18.461-18.36h-3.313v-3.312h-1.828v3.312h-3.312v1.829h3.312v3.312h1.828v-3.312h3.313z"/></svg>