<svg xmlns="http://www.w3.org/2000/svg" viewBox="0 0 55.2 55.2" enable-background="new 0 0 55.2 55.2"><linearGradient id="a" gradientUnits="userSpaceOnUse" x1="27.608" y1="53.719" x2="27.608" y2="1.5"><stop offset=".005" stop-color="#3EC1CD"/><stop offset="1" stop-color="#A5DFF9"/></linearGradient><circle fill="url(#a)" stroke="#fff" stroke-width="3" stroke-miterlimit="10" cx="27.6" cy="27.6" r="26.1"/><path fill="none" stroke="#000" stroke-width="2.24" stroke-linecap="round" stroke-linejoin="round" d="M41.4 14.6c-1.9-1.9-4-2.7-4.8-1.9l-17 17-6.2 12.9 12.9-6.2 17-17c.9-.7 0-2.9-1.9-4.8z"/><path fill="#fff" d="M36.6 12.7l-17 17-6.2 12.9 13-6.2 17-16.9z"/><path fill="#FBAA19" d="M41.4 14.6c-1.9-1.9-4-2.7-4.8-1.9l-17 17c.8-.8 3 .1 4.8 1.9 1.9 1.9 2.7 4 1.9 4.8l17-17c.9-.7 0-2.9-1.9-4.8z"/><path stroke="#000" stroke-width="1.7" stroke-linecap="round" stroke-linejoin="round" d="M16.2 41.5l-1.7-1.7-1.1 2.8z"/></svg>