<svg xmlns="http://www.w3.org/2000/svg" viewBox="0 0 225.23 55.222" enable-background="new 0 0 225.23 55.222"><linearGradient id="a" gradientUnits="userSpaceOnUse" x1="112.615" y1="53.722" x2="112.615" y2="1.5"><stop offset=".005" stop-color="#3EC1CD"/><stop offset="1" stop-color="#A5DFF9"/></linearGradient><path d="M197.621 1.503c-.469 0-.934.014-1.396.038v-.041h-169.225v.019c-14.138.324-25.5 11.88-25.5 26.094 0 14.215 11.362 25.769 25.5 26.093v.013h.492l.116.003.116-.003h168.5v-.035c.463.024.928.038 1.396.038 14.42 0 26.108-11.689 26.108-26.108.002-14.42-11.687-26.111-26.107-26.111z" fill="url(#a)" stroke="#fff" stroke-width="3" stroke-miterlimit="10"/><path d="M63.268 21.155c0-.984.72-1.776 1.8-1.776 1.032 0 1.801.672 1.801 1.776v5.185l5.904-6.289c.264-.288.72-.672 1.392-.672.912 0 1.776.696 1.776 1.729 0 .624-.384 1.128-1.176 1.92l-4.536 4.464 5.544 5.785c.576.576 1.009 1.104 1.009 1.824 0 1.128-.889 1.655-1.873 1.655-.695 0-1.151-.407-1.824-1.128l-6.216-6.721v6.121c0 .936-.721 1.728-1.801 1.728-1.031 0-1.8-.672-1.8-1.728v-13.873zm18.072 10.225c.24 1.704 1.656 2.496 3.264 2.496 1.776 0 3.001-1.392 3.913-1.392.744 0 1.416.743 1.416 1.487 0 1.488-3.072 2.929-5.641 2.929-3.889 0-6.48-2.832-6.48-6.648 0-3.505 2.544-6.697 6.192-6.697 3.744 0 6.217 3.409 6.217 6.289 0 1.032-.456 1.536-1.513 1.536h-7.368zm5.424-2.305c-.191-1.512-1.151-2.64-2.76-2.64-1.536 0-2.568 1.176-2.736 2.64h5.496zm8.183 2.305c.24 1.704 1.656 2.496 3.264 2.496 1.776 0 3.001-1.392 3.913-1.392.744 0 1.416.743 1.416 1.487 0 1.488-3.072 2.929-5.641 2.929-3.889 0-6.48-2.832-6.48-6.648 0-3.505 2.544-6.697 6.192-6.697 3.744 0 6.217 3.409 6.217 6.289 0 1.032-.456 1.536-1.513 1.536h-7.368zm5.424-2.305c-.191-1.512-1.151-2.64-2.76-2.64-1.536 0-2.568 1.176-2.736 2.64h5.496zm5.4-3.456c0-1.152.72-1.92 1.728-1.92.96 0 1.513.528 1.729 1.44.648-1.057 1.992-1.585 3.288-1.585 3.721 0 5.568 3.48 5.568 6.841 0 3.265-2.208 6.505-5.688 6.505-1.08 0-2.256-.408-3.168-1.2v4.225c0 1.152-.72 1.92-1.729 1.92-1.008 0-1.728-.768-1.728-1.92v-14.306zm6.168 8.113c1.801 0 2.688-1.872 2.688-3.48 0-1.633-.888-3.528-2.688-3.528-1.848 0-2.712 1.728-2.712 3.408.001 1.68.817 3.6 2.712 3.6zm15.432-8.304c0-1.152.912-1.728 1.775-1.728.912 0 1.681.336 1.681 1.44h.048c.648-.96 1.344-1.44 2.424-1.44.841 0 1.681.6 1.681 1.848 0 1.129-1.032 1.2-2.065 1.681-1.032.48-2.088.937-2.088 2.304v5.305c0 1.152-.721 1.92-1.729 1.92s-1.728-.768-1.728-1.92v-9.41zm11.111 5.952c.24 1.704 1.656 2.496 3.264 2.496 1.776 0 3.001-1.392 3.913-1.392.744 0 1.416.743 1.416 1.487 0 1.488-3.072 2.929-5.641 2.929-3.889 0-6.48-2.832-6.48-6.648 0-3.505 2.544-6.697 6.192-6.697 3.744 0 6.217 3.409 6.217 6.289 0 1.032-.456 1.536-1.513 1.536h-7.368zm5.424-2.305c-.191-1.512-1.151-2.64-2.76-2.64-1.536 0-2.568 1.176-2.736 2.64h5.496zm17.209 5.425c0 .889 0 2.256-1.656 2.256-1.008 0-1.416-.552-1.656-1.464-.888 1.057-1.968 1.608-3.288 1.608-3.24 0-5.712-2.761-5.712-6.648 0-3.793 2.544-6.697 5.712-6.697 1.272 0 2.52.505 3.288 1.585.097-.841.816-1.44 1.656-1.44 1.656 0 1.656 1.368 1.656 2.256v8.544zm-6.12-.768c1.8 0 2.664-1.824 2.664-3.48s-.84-3.528-2.664-3.528c-1.896 0-2.736 1.872-2.736 3.528s.864 3.48 2.736 3.48zm20.615 1.104c0 1.152-.72 1.92-1.728 1.92-.961 0-1.513-.527-1.729-1.44-.648 1.056-1.992 1.584-3.168 1.584-3.48 0-5.688-3.24-5.688-6.505 0-3.36 1.848-6.841 5.568-6.841 1.2 0 2.376.408 3.288 1.2v-4.704c0-1.152.72-1.92 1.729-1.92 1.008 0 1.728.768 1.728 1.92v14.786zm-6.168-8.112c-1.801 0-2.688 1.896-2.688 3.528 0 1.608.888 3.48 2.688 3.48 1.895 0 2.712-1.921 2.712-3.601s-.864-3.407-2.712-3.407zm12.48-6.313c0 1.08-.864 1.992-1.944 1.992-1.032 0-1.944-.937-1.944-1.992 0-.984.912-1.896 1.944-1.896s1.944.887 1.944 1.896zm-3.672 5.208c0-1.152.72-1.92 1.727-1.92 1.008 0 1.729.767 1.729 1.92v9.217c0 1.152-.721 1.92-1.729 1.92s-1.727-.768-1.727-1.92v-9.217zm6.096 0c0-1.152.72-1.92 1.727-1.92.889 0 1.465.48 1.584 1.272.673-.937 1.705-1.417 3.337-1.417 2.712 0 4.729 1.728 4.729 4.657v6.624c0 1.152-.721 1.92-1.729 1.92s-1.729-.768-1.729-1.92v-6.024c0-1.608-1.008-2.376-2.256-2.376-1.416 0-2.208 1.032-2.208 2.376v6.024c0 1.152-.72 1.92-1.729 1.92-1.008 0-1.727-.768-1.727-1.92v-9.216zm25.872 9.985c0 4.152-2.712 6.24-6.648 6.24-1.416 0-5.448-.696-5.448-2.592 0-.648.72-1.513 1.392-1.513 1.104 0 2.328 1.08 4.32 1.08 1.681 0 2.929-.984 2.929-2.736v-.815h-.048c-.721 1.056-1.896 1.632-3.48 1.632-3.624 0-5.328-3.192-5.328-6.625 0-3.479 2.208-6.721 5.689-6.721 1.176 0 2.52.528 3.168 1.585.216-.912.768-1.44 1.729-1.44 1.008 0 1.727.767 1.727 1.92v9.985zm-6.168-8.88c-1.801 0-2.689 1.872-2.689 3.48 0 1.848.888 3.528 2.689 3.528 1.848 0 2.712-1.729 2.712-3.408 0-1.68-.817-3.6-2.712-3.6z" fill="#104068"/><path d="M55.607 34.236l-3.492-11.234-1.045.036-.467-1.627-.159-.518-.175-.512-.193-.503-.209-.497c-.365.011-.718.055-1.078.081l-.772-2.871c-1.535.144-3.072.486-4.549.996-1.475.506-2.886 1.181-4.17 1.99-1.28.808-2.434 1.753-3.396 2.799-.961 1.047-1.729 2.196-2.24 3.42-.516-1.224-1.285-2.373-2.243-3.42-.962-1.046-2.116-1.991-3.398-2.799-1.284-.81-2.694-1.484-4.169-1.99-1.476-.51-3.014-.852-4.549-.996l-.772 2.871c-.36-.025-.713-.07-1.078-.081l-.21.497-.191.504-.176.51-.16.519-.469 1.627-1.042-.036-3.493 11.234v.91l1.39.045.763.045c.278.021.582.05.905.084l1.021.124c.36.049.733.104 1.119.165.578.09 1.188.195 1.811.311.626.118 1.271.249 1.923.39.651.142 1.312.295 1.969.458.656.163 1.314.337 1.956.521.323.091.642.185.956.283.315.096.625.194.929.295l.893.307.852.316c.277.106.547.216.805.327.26.108.508.22.746.332.237.111.463.224.678.336.214.113.413.227.602.341l.315.159.332.114.345.068.356.022h2.555l.358-.022.346-.068.333-.116.317-.162c.249-.148.523-.3.816-.449.297-.149.612-.298.948-.446.337-.145.691-.292 1.059-.435.369-.143.751-.283 1.148-.419.593-.206 1.212-.404 1.844-.596.636-.189 1.284-.369 1.94-.539.654-.171 1.316-.331 1.972-.48.655-.148 1.308-.285 1.943-.411l.943-.18.913-.16.875-.139.832-.119.773-.099.715-.074.643-.053.56-.03 1.389-.045v-.91l.007-.001z" fill="#fff"/><path d="M55.607 34.236l-3.492-11.234-1.045.036-.467-1.627-.159-.518-.175-.512-.193-.503-.209-.497c-.365.011-.718.055-1.078.081l-.772-2.871c-1.535.144-3.072.486-4.549.996-1.475.506-2.886 1.181-4.17 1.99-1.28.808-2.434 1.753-3.396 2.799-.961 1.047-1.729 2.196-2.24 3.42-.516-1.224-1.285-2.373-2.243-3.42-.962-1.046-2.116-1.991-3.398-2.799-1.284-.81-2.694-1.484-4.169-1.99-1.476-.51-3.014-.852-4.549-.996l-.772 2.871c-.36-.025-.713-.07-1.078-.081l-.21.497-.191.504-.176.51-.16.519-.469 1.627-1.042-.036-3.493 11.234v.91l1.39.045.763.045c.278.021.582.05.905.084l1.021.124c.36.049.733.104 1.119.165.578.09 1.188.195 1.811.311.626.118 1.271.249 1.923.39.651.142 1.312.295 1.969.458.656.163 1.314.337 1.956.521.323.091.642.185.956.283.315.096.625.194.929.295l.893.307.852.316c.277.106.547.216.805.327.26.108.508.22.746.332.237.111.463.224.678.336.214.113.413.227.602.341l.315.159.332.114.345.068.356.022h2.555l.358-.022.346-.068.333-.116.317-.162c.249-.148.523-.3.816-.449.297-.149.612-.298.948-.446.337-.145.691-.292 1.059-.435.369-.143.751-.283 1.148-.419.593-.206 1.212-.404 1.844-.596.636-.189 1.284-.369 1.94-.539.654-.171 1.316-.331 1.972-.48.655-.148 1.308-.285 1.943-.411l.943-.18.913-.16.875-.139.832-.119.773-.099.715-.074.643-.053.56-.03 1.389-.045v-.91l.007-.001z" fill="none" stroke="#104068" stroke-width="1.415"/><path d="M55.599 35.146l-1.389.045-.56.03-.642.053-.715.074-.773.099-.832.119-.875.139-.913.16-.943.18c-.636.126-1.288.263-1.943.411-.655.149-1.317.31-1.972.48-.656.17-1.305.35-1.941.539-.632.191-1.251.39-1.844.596-.397.136-.778.276-1.148.419-.368.144-.722.29-1.059.436-.336.148-.651.297-.948.446-.294.149-.567.301-.816.449l-.317.162-.333.116-.346.068-.358.022h-2.555l-.355-.022-.345-.068-.332-.114-.315-.159c-.189-.113-.388-.227-.602-.341-.215-.112-.44-.225-.678-.336-.238-.112-.486-.224-.746-.332-.258-.111-.527-.221-.805-.327l-.852-.316-.894-.307c-.304-.101-.613-.199-.929-.295-.314-.098-.633-.192-.956-.283-.643-.184-1.3-.357-1.956-.521-.657-.163-1.317-.316-1.969-.458-.652-.141-1.297-.271-1.923-.39-.624-.116-1.233-.222-1.811-.311-.386-.062-.759-.116-1.119-.165l-1.022-.124c-.323-.034-.627-.063-.905-.084l-.763-.045-1.39-.045v-.91h43.887v.91z" fill="#0C3854"/><path d="M33.662 28.57l-17.28-5.527-1.177-.041-3.493 11.234 1.673.057.568.031.686.058.744.081.801.102.859.124.904.146.943.165.967.188c.656.13 1.324.273 1.998.428.674.155 1.352.32 2.026.499.677.177 1.346.366 2.005.565.658.199 1.303.409 1.925.626.409.144.809.292 1.193.441.389.154.764.309 1.126.468.358.158.706.321 1.034.49.331.168.642.339.937.516l.165.097h2.788l.164-.097c.294-.177.605-.348.936-.516.329-.169.677-.331 1.036-.49.36-.159.736-.313 1.124-.468.387-.148.785-.298 1.195-.441.621-.217 1.267-.427 1.924-.626.658-.199 1.328-.389 2.004-.565.675-.179 1.354-.344 2.027-.499.674-.154 1.344-.298 1.998-.428l.968-.188.941-.165.906-.146.861-.124.797-.102.746-.081.685-.057.569-.032 1.672-.057-3.492-11.234-1.178.041-17.275 5.527zm0 0l-17.28-5.527-1.177-.041-3.493 11.234 1.673.057.568.031.686.058.744.081.801.102.859.124.904.146.943.165.967.188c.656.13 1.324.273 1.998.428.674.155 1.352.32 2.026.499.677.177 1.346.366 2.005.565.658.199 1.303.409 1.925.626.409.144.809.292 1.193.441.389.154.764.309 1.126.468.358.158.706.321 1.034.49.331.168.642.339.937.516l.165.097h2.788l.164-.097c.294-.177.605-.348.936-.516.329-.169.677-.331 1.036-.49.36-.159.736-.313 1.124-.468.387-.148.785-.298 1.195-.441.621-.217 1.267-.427 1.924-.626.658-.199 1.328-.389 2.004-.565.675-.179 1.354-.344 2.027-.499.674-.154 1.344-.298 1.998-.428l.968-.188.941-.165.906-.146.861-.124.797-.102.746-.081.685-.057.569-.032 1.672-.057-3.492-11.234-1.178.041-17.275 5.527zm17.237-5.526l-.743.045c-.264.021-.543.048-.836.081l-.911.113c-.319.042-.646.093-.983.146-.514.085-1.051.18-1.603.285-.552.106-1.118.224-1.692.351-.574.127-1.154.265-1.735.413-.58.146-1.16.305-1.733.472l-.853.259-.833.269-.811.284-.784.298-.733.305-.697.318-.657.332c-.211.113-.415.229-.611.347h-2.044c-.263-.158-.542-.311-.832-.461-.289-.149-.592-.295-.907-.436-.317-.142-.642-.277-.979-.411-.336-.132-.681-.261-1.034-.387-.537-.192-1.094-.373-1.659-.548-.566-.172-1.142-.336-1.722-.489-.58-.155-1.162-.3-1.739-.434-.578-.135-1.15-.258-1.712-.37l-.831-.162-.809-.144-.776-.127-.742-.109-.689-.087-.648-.07-.608-.052-.569-.03-3.07 10.555.671.037.717.06.764.082.812.102.873.127.916.147.949.168.979.188c.663.131 1.337.276 2.02.432.68.156 1.366.324 2.048.504.683.18 1.36.371 2.028.572.666.202 1.32.413 1.953.637.416.146.824.297 1.218.451.398.153.78.313 1.151.477.369.163.728.332 1.07.506.342.175.667.354.979.538h2.404c.231-.137.47-.271.721-.403.249-.133.508-.26.771-.387.267-.126.54-.249.821-.37.281-.121.568-.239.864-.357.303-.118.608-.234.922-.346.313-.113.633-.223.956-.33l.981-.315 1.003-.3c.675-.193 1.357-.378 2.041-.551.685-.17 1.37-.331 2.045-.479.675-.148 1.343-.286 1.993-.408.649-.124 1.282-.233 1.887-.332l1.159-.17c.372-.051.732-.094 1.075-.134l.982-.092c.31-.024.604-.043.876-.053l-3.064-10.557z" fill="#104068"/><radialGradient id="b" cx="-555.013" cy="-1007.585" r="67.09" gradientTransform="matrix(.358 0 0 .358 232.633 398.722)" gradientUnits="userSpaceOnUse"><stop offset="0" stop-color="#D3DEF1"/><stop offset=".923" stop-color="#DCE5F4"/><stop offset="1" stop-color="#DDE6F5"/></radialGradient><path d="M33.662 25.797l-16.209-6.415-.21.497-.191.504-.176.51-.16.519s-3.288 11.405-3.356 11.726l.644.036.701.058.761.082.81.102.873.128.916.148.949.167c-7.058-1.301-6.073-1.221.979.189.663.131 1.337.275 2.02.431.68.157 1.366.324 2.048.505.683.179 1.36.37 2.028.572.666.202 1.32.414 1.953.636.416.146.824.297 1.218.45.398.156.78.315 1.151.477.369.165.728.334 1.07.508.342.172.667.353.979.537h2.404c.231-.138.47-.273.721-.403.249-.132.508-.26.771-.387.267-.125.54-.249.821-.37.281-.122.568-.24.864-.356.303-.117.608-.233.922-.345.313-.114.633-.224.956-.331l.981-.315c.331-.103.666-.202 1.003-.299.675-.194 1.357-.378 2.041-.55.685-.171 1.37-.332 2.045-.479.675-.15 1.343-.286 1.993-.408.649-.125 1.282-.233 1.887-.332.4-.062.786-.121 1.159-.17.372-.052.732-.097 1.075-.133.344-.038.672-.069.982-.093.31-.025.604-.043.876-.054-.018-.088-3.358-11.726-3.358-11.726l-.159-.518-.175-.512-.193-.503-.209-.497-16.205 6.414z" fill="url(#b)"/><path fill="#E9EEF8" d="M34.635 27.389v-.001zm-2.122 11.268z"/><linearGradient id="c" gradientUnits="userSpaceOnUse" x1="52.758" y1="28.442" x2="33.622" y2="28.442"><stop offset="0" stop-color="#fff"/><stop offset=".422" stop-color="#F2F5FB"/><stop offset="1" stop-color="#DDE6F5"/></linearGradient><path d="M33.662 37.503v-11.172l.089-.108.091-.104.097-.107.095-.104c.855-.941 1.856-1.808 2.984-2.58 1.129-.773 2.381-1.452 3.731-2.019 1.354-.567 2.807-1.024 4.336-1.354 1.526-.326 3.13-.523 4.782-.572l2.891 10.023c-1.947.059-3.837.289-5.64.67-1.799.381-3.513.916-5.107 1.577-1.593.663-3.067 1.453-4.397 2.354-1.327.899-2.506 1.907-3.516 3.002l-.111.123-.109.123-.109.124-.107.124" fill="url(#c)"/><linearGradient id="d" gradientUnits="userSpaceOnUse" x1="14.563" y1="28.442" x2="33.622" y2="28.442"><stop offset="0" stop-color="#fff"/><stop offset=".422" stop-color="#F2F5FB"/><stop offset="1" stop-color="#DDE6F5"/></linearGradient><path d="M14.563 29.405l2.891-10.023c1.651.049 3.255.246 4.783.572 1.527.329 2.981.786 4.335 1.354 1.353.566 2.604 1.246 3.733 2.019 1.126.772 2.129 1.639 2.983 2.58l.095.104.096.107.092.104.093.108v11.172l-.108-.125-.109-.124-.111-.123-.111-.123c-1.008-1.095-2.188-2.103-3.515-3.002-1.33-.9-2.805-1.69-4.398-2.354-1.595-.661-3.309-1.195-5.108-1.577-1.806-.38-3.693-.61-5.641-.669" fill="url(#d)"/><linearGradient id="e" gradientUnits="userSpaceOnUse" x1="33.662" y1="26.736" x2="50.587" y2="26.736"><stop offset="0" stop-color="#E9EEF8"/><stop offset=".203" stop-color="#F4F7FC"/><stop offset=".502" stop-color="#FCFDFE"/><stop offset="1" stop-color="#fff"/></linearGradient><path d="M33.662 36.88v-11.083c.512-1.224 1.279-2.373 2.24-3.42.963-1.046 2.116-1.991 3.396-2.799 1.284-.81 2.695-1.484 4.17-1.99 1.477-.51 3.014-.853 4.549-.996l2.569 9.56c-1.812.169-3.624.567-5.364 1.161-1.74.592-3.405 1.379-4.917 2.322-1.511.944-2.871 2.044-4.003 3.266-1.132 1.216-2.036 2.556-2.64 3.979" fill="url(#e)"/><g enable-background="new"><linearGradient id="f" gradientUnits="userSpaceOnUse" x1="16.732" y1="26.736" x2="33.662" y2="26.736"><stop offset="0" stop-color="#fff"/><stop offset=".802" stop-color="#FDFEFF"/><stop offset="1" stop-color="#FAFDFF"/></linearGradient><path d="M16.732 26.151l2.57-9.56c1.535.144 3.073.486 4.549.996 1.475.506 2.885 1.181 4.169 1.99 1.282.808 2.437 1.753 3.398 2.799.958 1.047 1.728 2.196 2.243 3.42v11.084c-.608-1.423-1.512-2.763-2.643-3.98-1.134-1.222-2.493-2.321-4.004-3.266-1.514-.943-3.178-1.73-4.918-2.322-1.739-.593-3.553-.992-5.364-1.161" fill="url(#f)"/></g><g opacity=".5"><radialGradient id="g" cx="-500.719" cy="-1015.078" r="48.713" gradientTransform="matrix(.358 0 0 .358 232.633 398.722)" gradientUnits="userSpaceOnUse"><stop offset="0" stop-color="#fff"/><stop offset=".422" stop-color="#F2F5FB"/><stop offset="1" stop-color="#DDE6F5"/></radialGradient><path d="M34.188 37.38l.087-.075c3.348-2.897 9.871-6.333 18.879-6.771l.114-.005.013.231-.118.005c-8.95.434-15.431 3.852-18.735 6.715l-.085.075-.155-.175z" fill="url(#g)"/><radialGradient id="h" cx="-500.721" cy="-1015.074" r="48.712" gradientTransform="matrix(.358 0 0 .358 232.633 398.722)" gradientUnits="userSpaceOnUse"><stop offset="0" stop-color="#fff"/><stop offset=".422" stop-color="#F2F5FB"/><stop offset="1" stop-color="#DDE6F5"/></radialGradient><path d="M34.447 37.755l.092-.07c3.455-2.554 10.755-5.403 19.015-5.907v.003l.115-.008.015.23-.116.005c-8.214.499-15.493 3.345-18.89 5.862l-.093.07-.138-.185z" fill="url(#h)"/><radialGradient id="i" cx="988.359" cy="-1015.077" r="48.707" gradientTransform="matrix(-.358 0 0 .358 368.523 398.722)" gradientUnits="userSpaceOnUse"><stop offset="0" stop-color="#fff"/><stop offset=".422" stop-color="#F2F5FB"/><stop offset="1" stop-color="#DDE6F5"/></radialGradient><path d="M33.132 37.38l-.087-.075c-3.348-2.897-9.871-6.333-18.878-6.77l-.116-.005-.011.23.116.005c8.951.434 15.432 3.852 18.736 6.715l.086.075.154-.175z" fill="url(#i)"/><radialGradient id="j" cx="988.357" cy="-1015.074" r="48.712" gradientTransform="matrix(-.358 0 0 .358 368.523 398.722)" gradientUnits="userSpaceOnUse"><stop offset="0" stop-color="#fff"/><stop offset=".422" stop-color="#F2F5FB"/><stop offset="1" stop-color="#DDE6F5"/></radialGradient><path d="M32.874 37.755l-.091-.07c-3.455-2.554-10.755-5.403-19.017-5.907v.003l-.115-.008-.014.23.116.005c8.212.499 15.492 3.345 18.891 5.862l.092.07.138-.185z" fill="url(#j)"/></g><path d="M50.587 26.151c-1.812.169-3.624.567-5.364 1.161-1.74.592-3.405 1.379-4.917 2.322-1.511.944-2.871 2.044-4.003 3.266-1.133 1.217-2.037 2.557-2.641 3.98-.608-1.423-1.512-2.763-2.643-3.98-1.134-1.222-2.493-2.321-4.004-3.266-1.514-.943-3.178-1.73-4.918-2.322-1.74-.594-3.555-.992-5.365-1.161l-.037.449c1.767.162 3.54.551 5.242 1.13 1.698.579 3.327 1.347 4.806 2.269 1.478.918 2.806 1.987 3.911 3.17 1.101 1.179 1.982 2.472 2.567 3.839l.111.123.111.123.109.124.108.125.105-.125.109-.124.109-.123.111-.123c.585-1.367 1.467-2.66 2.568-3.839 1.105-1.183 2.434-2.252 3.911-3.171 1.479-.921 3.107-1.688 4.806-2.269 1.702-.58 3.476-.972 5.242-1.134l-.034-.444z" fill="#fff"/></svg>