<svg xmlns="http://www.w3.org/2000/svg" viewBox="0 0 225.2 55.2" enable-background="new 0 0 225.2 55.2"><path fill="#D8F0FC" stroke="#fff" stroke-width="3" stroke-miterlimit="10" d="M197.6 1.5h-170.6c-14.1.3-25.5 11.9-25.5 26.1 0 14.2 11.4 25.8 25.5 26.1h170.6c14.4 0 26.1-11.7 26.1-26.1 0-14.4-11.7-26.1-26.1-26.1z"/><path d="M63.3 21.2c0-1 .7-1.8 1.8-1.8 1 0 1.8.7 1.8 1.8v5.2l5.9-6.3c.3-.3.7-.7 1.4-.7.9 0 1.8.7 1.8 1.7 0 .6-.4 1.1-1.2 1.9l-4.5 4.5 5.5 5.8c.6.6 1 1.1 1 1.8 0 1.1-.9 1.7-1.9 1.7-.7 0-1.2-.4-1.8-1.1l-6.2-6.7v6c0 .9-.7 1.7-1.8 1.7-1 0-1.8-.7-1.8-1.7v-13.8zm18 10.2c.2 1.7 1.7 2.5 3.3 2.5 1.8 0 3-1.4 3.9-1.4.7 0 1.4.7 1.4 1.5 0 1.5-3.1 2.9-5.6 2.9-3.9 0-6.5-2.8-6.5-6.6 0-3.5 2.5-6.7 6.2-6.7s6.2 3.4 6.2 6.3c0 1-.5 1.5-1.5 1.5h-7.4zm5.5-2.3c-.2-1.5-1.2-2.6-2.8-2.6-1.5 0-2.6 1.2-2.7 2.6h5.5zm8.1 2.3c.2 1.7 1.7 2.5 3.3 2.5 1.8 0 3-1.4 3.9-1.4.7 0 1.4.7 1.4 1.5 0 1.5-3.1 2.9-5.6 2.9-3.9 0-6.5-2.8-6.5-6.6 0-3.5 2.5-6.7 6.2-6.7s6.2 3.4 6.2 6.3c0 1-.5 1.5-1.5 1.5h-7.4zm5.5-2.3c-.2-1.5-1.2-2.6-2.8-2.6-1.5 0-2.6 1.2-2.7 2.6h5.5zm5.4-3.5c0-1.2.7-1.9 1.7-1.9s1.5.5 1.7 1.4c.6-1.1 2-1.6 3.3-1.6 3.7 0 5.6 3.5 5.6 6.8s-2.2 6.5-5.7 6.5c-1.1 0-2.3-.4-3.2-1.2v4.2c0 1.2-.7 1.9-1.7 1.9s-1.7-.8-1.7-1.9v-14.2zm6.1 8.1c1.8 0 2.7-1.9 2.7-3.5s-.9-3.5-2.7-3.5c-1.8 0-2.7 1.7-2.7 3.4s.8 3.6 2.7 3.6zm15.5-8.3c0-1.2.9-1.7 1.8-1.7s1.7.3 1.7 1.4c.6-1 1.3-1.4 2.4-1.4.8 0 1.7.6 1.7 1.8 0 1.1-1 1.2-2.1 1.7-1 .5-2.1.9-2.1 2.3v5.3c0 1.2-.7 1.9-1.7 1.9s-1.7-.8-1.7-1.9v-9.4zm11.1 6c.2 1.7 1.7 2.5 3.3 2.5 1.8 0 3-1.4 3.9-1.4.7 0 1.4.7 1.4 1.5 0 1.5-3.1 2.9-5.6 2.9-3.9 0-6.5-2.8-6.5-6.6 0-3.5 2.5-6.7 6.2-6.7s6.2 3.4 6.2 6.3c0 1-.5 1.5-1.5 1.5h-7.4zm5.4-2.3c-.2-1.5-1.2-2.6-2.8-2.6-1.5 0-2.6 1.2-2.7 2.6h5.5zm17.2 5.4c0 .9 0 2.3-1.7 2.3-1 0-1.4-.6-1.7-1.5-.9 1.1-2 1.6-3.3 1.6-3.2 0-5.7-2.8-5.7-6.6s2.5-6.7 5.7-6.7c1.3 0 2.5.5 3.3 1.6.1-.8.8-1.4 1.7-1.4 1.7 0 1.7 1.4 1.7 2.3v8.4zm-6.1-.8c1.8 0 2.7-1.8 2.7-3.5s-.8-3.5-2.7-3.5c-1.9 0-2.7 1.9-2.7 3.5 0 1.7.8 3.5 2.7 3.5zm20.6 1.1c0 1.2-.7 1.9-1.7 1.9s-1.5-.5-1.7-1.4c-.6 1.1-2 1.6-3.2 1.6-3.5 0-5.7-3.2-5.7-6.5 0-3.4 1.8-6.8 5.6-6.8 1.2 0 2.4.4 3.3 1.2v-4.7c0-1.2.7-1.9 1.7-1.9s1.7.8 1.7 1.9v14.7zm-6.2-8.1c-1.8 0-2.7 1.9-2.7 3.5s.9 3.5 2.7 3.5c1.9 0 2.7-1.9 2.7-3.6.1-1.6-.8-3.4-2.7-3.4zm12.5-6.3c0 1.1-.9 2-1.9 2-1 0-1.9-.9-1.9-2 0-1 .9-1.9 1.9-1.9 1 0 1.9.9 1.9 1.9zm-3.6 5.2c0-1.2.7-1.9 1.7-1.9s1.7.8 1.7 1.9v9.2c0 1.2-.7 1.9-1.7 1.9s-1.7-.8-1.7-1.9v-9.2zm6 0c0-1.2.7-1.9 1.7-1.9.9 0 1.5.5 1.6 1.3.7-.9 1.7-1.4 3.3-1.4 2.7 0 4.7 1.7 4.7 4.7v6.6c0 1.2-.7 1.9-1.7 1.9s-1.7-.8-1.7-1.9v-6c0-1.6-1-2.4-2.3-2.4-1.4 0-2.2 1-2.2 2.4v6c0 1.2-.7 1.9-1.7 1.9s-1.7-.8-1.7-1.9v-9.3zm25.9 10c0 4.2-2.7 6.2-6.6 6.2-1.4 0-5.4-.7-5.4-2.6 0-.6.7-1.5 1.4-1.5 1.1 0 2.3 1.1 4.3 1.1 1.7 0 2.9-1 2.9-2.7v-.8c-.7 1.1-1.9 1.6-3.5 1.6-3.6 0-5.3-3.2-5.3-6.6 0-3.5 2.2-6.7 5.7-6.7 1.2 0 2.5.5 3.2 1.6.2-.9.8-1.4 1.7-1.4 1 0 1.7.8 1.7 1.9v9.9zm-6.2-8.9c-1.8 0-2.7 1.9-2.7 3.5 0 1.8.9 3.5 2.7 3.5 1.8 0 2.7-1.7 2.7-3.4.1-1.7-.8-3.6-2.7-3.6z" fill="#104068"/><path fill="#fff" d="M55.6 34.2l-3.5-11.2h-1c-.3-1-.5-1.6-.5-1.6l-.2-.5-.2-.5-.2-.5-.2-.5-1.1.1-.7-2.9c-1.5.1-3.1.5-4.5 1-1.5.5-2.9 1.2-4.2 2-1.3.8-2.4 1.8-3.4 2.8-1 1-1.7 2.2-2.2 3.4-.5-1.2-1.3-2.4-2.2-3.4-1-1-2.1-2-3.4-2.8-1.3-.8-2.7-1.5-4.2-2s-3-.9-4.5-1l-.8 2.9-1.1-.1-.2.5-.2.5-.2.5-.2.5s-.2.6-.5 1.6h-1l-3.5 11.2v.9h2.2c.3 0 .6 0 .9.1l1 .1c.4 0 .7.1 1.1.2l1.8.3c.6.1 1.3.2 1.9.4.7.1 1.3.3 2 .5l2 .5c.3.1.6.2 1 .3l.9.3.9.3.9.3.8.3c.3.1.5.2.7.3l.7.3.6.3.3.2.3.1.3.1h3.4c.1 0 .2 0 .3-.1l.3-.1c.1 0 .2-.1.3-.2.2-.1.5-.3.8-.4l.9-.4c.3-.1.7-.3 1.1-.4.4-.1.8-.3 1.1-.4l1.8-.6c.6-.2 1.3-.4 1.9-.5l2-.5c.7-.1 1.3-.3 1.9-.4l.9-.2.9-.2.9-.1c.3 0 .6-.1.8-.1l.8-.1c.3 0 .5-.1.7-.1.2 0 .4 0 .6-.1h2l.2-.9z"/><path fill="none" stroke="#104068" stroke-width="1.415" d="M55.6 34.2l-3.5-11.2h-1c-.3-1-.5-1.6-.5-1.6l-.2-.5-.2-.5-.2-.5-.2-.5-1.1.1-.7-2.9c-1.5.1-3.1.5-4.5 1-1.5.5-2.9 1.2-4.2 2-1.3.8-2.4 1.8-3.4 2.8-1 1-1.7 2.2-2.2 3.4-.5-1.2-1.3-2.4-2.2-3.4-1-1-2.1-2-3.4-2.8-1.3-.8-2.7-1.5-4.2-2s-3-.9-4.5-1l-.8 2.9-1.1-.1-.2.5-.2.5-.2.5-.2.5s-.2.6-.5 1.6h-1l-3.5 11.2v.9h2.2c.3 0 .6 0 .9.1l1 .1c.4 0 .7.1 1.1.2l1.8.3c.6.1 1.3.2 1.9.4.7.1 1.3.3 2 .5l2 .5c.3.1.6.2 1 .3l.9.3.9.3.9.3.8.3c.3.1.5.2.7.3l.7.3.6.3.3.2.3.1.3.1h3.4c.1 0 .2 0 .3-.1l.3-.1c.1 0 .2-.1.3-.2.2-.1.5-.3.8-.4l.9-.4c.3-.1.7-.3 1.1-.4.4-.1.8-.3 1.1-.4l1.8-.6c.6-.2 1.3-.4 1.9-.5l2-.5c.7-.1 1.3-.3 1.9-.4l.9-.2.9-.2.9-.1c.3 0 .6-.1.8-.1l.8-.1c.3 0 .5-.1.7-.1.2 0 .4 0 .6-.1h2l.2-.9z"/><path fill="#0C3854" d="M55.6 35.1h-2c-.2 0-.4 0-.6.1-.2 0-.5 0-.7.1-.2 0-.5.1-.8.1l-.8.1-.9.1c-.3 0-.6.1-.9.2-.3.1-.6.2-.9.2l-1.9.4c-.7.1-1.3.3-2 .5s-1.3.3-1.9.5c-.6.2-1.3.4-1.8.6-.4.1-.8.3-1.1.4l-1.1.4c-.3.1-.7.3-.9.4-.3.1-.6.3-.8.4l-.3.2-.3.1-.3.1h-3.4c-.1 0-.2 0-.3-.1l-.3-.1c-.1 0-.2-.1-.3-.2l-.6-.3c-.2-.1-.4-.2-.7-.3l-.7-.3-.8-.3-.9-.3-.9-.3-.9-.3c-.3-.1-.6-.2-1-.3-.6-.2-1.3-.4-2-.5l-2-.5c-.7-.1-1.3-.3-1.9-.4l-1.8-.3c-.4-.1-.8-.1-1.1-.2-.4 0-.7-.1-1-.1l-.9-.1h-2.2v-.9h43.9v.9z"/><path fill="#104068" d="M33.7 28.6l-17.3-5.6h-1.2l-3.5 11.2 1.7.1h.6c.2 0 .4 0 .7.1l.7.1.8.1.9.1.9.1.9.2c.3.1.6.1 1 .2l2 .4c.7.2 1.4.3 2 .5l2 .6c.7.2 1.3.4 1.9.6l1.2.4c.4.2.8.3 1.1.5.4.2.7.3 1 .5l.9.5.2.1h2.8l.2-.1.9-.5 1-.5 1.1-.5 1.2-.4 1.9-.6 2-.6c.7-.2 1.4-.3 2-.5.7-.2 1.3-.3 2-.4l1-.2.9-.2c.3-.1.6-.1.9-.1l.9-.1.8-.1c.3 0 .5-.1.7-.1.2 0 .5 0 .7-.1h.6l1.7-.1-3.4-11.2h-1.2l-17.2 5.6zm0 0l-17.3-5.6h-1.2l-3.5 11.2 1.7.1h.6c.2 0 .4 0 .7.1l.7.1.8.1.9.1.9.1.9.2c.3.1.6.1 1 .2l2 .4c.7.2 1.4.3 2 .5l2 .6c.7.2 1.3.4 1.9.6l1.2.4c.4.2.8.3 1.1.5.4.2.7.3 1 .5l.9.5.2.1h2.8l.2-.1.9-.5 1-.5 1.1-.5 1.2-.4 1.9-.6 2-.6c.7-.2 1.4-.3 2-.5.7-.2 1.3-.3 2-.4l1-.2.9-.2c.3-.1.6-.1.9-.1l.9-.1.8-.1c.3 0 .5-.1.7-.1.2 0 .5 0 .7-.1h.6l1.7-.1-3.4-11.2h-1.2l-17.2 5.6zm17.2-5.6h-.7c-.3 0-.5 0-.8.1l-.9.1c-.3 0-.6.1-1 .1l-1.6.3c-.6.1-1.1.2-1.7.4-.6.1-1.2.3-1.7.4-.6.1-1.2.3-1.7.5l-.9.3c-.3.1-.6.2-.8.3l-.8.3-.8.3c-.3.1-.5.2-.7.3l-.7.3c-.2.1-.4.2-.7.3l-.6.3h-2l-.8-.5-.9-.4c-.3-.1-.6-.3-1-.4l-1-.4c-.5-.2-1.1-.4-1.7-.5l-1.7-.5c-.6-.2-1.2-.3-1.7-.4-.6-.1-1.2-.3-1.7-.4-.3-.1-.6-.1-.8-.2-.3-.1-.5-.1-.8-.1l-.8-.1c-.3 0-.5-.1-.7-.1l-.7-.1c-.2 0-.4 0-.6-.1-.2 0-.4 0-.6-.1h-.6l-3.1 10.6h.7c.2 0 .5 0 .7.1.2 0 .5 0 .8.1l.8.1.9.1.9.1.9.2c.3.1.6.1 1 .2l2 .4c.7.2 1.4.3 2 .5.7.2 1.4.4 2 .6l2 .6c.4.1.8.3 1.2.5l1.2.5 1.1.5c.3.2.7.4 1 .5h2.4l.7-.4c.2-.1.5-.3.8-.4.3-.1.5-.2.8-.4.3-.1.6-.2.9-.4l.9-.3c.3-.1.6-.2 1-.3l1-.3 1-.3c.7-.2 1.4-.4 2-.6.7-.2 1.4-.3 2-.5l2-.4 1.9-.3 1.2-.2c.4-.1.7-.1 1.1-.1l1-.1c.3 0 .6 0 .9-.1l-3.5-10.5z"/><radialGradient id="a" cx="-555.013" cy="-1007.566" r="67.09" gradientTransform="matrix(.358 0 0 .358 232.633 398.715)" gradientUnits="userSpaceOnUse"><stop offset="0" stop-color="#D3DEF1"/><stop offset=".923" stop-color="#DCE5F4"/><stop offset="1" stop-color="#DDE6F5"/></radialGradient><path fill="url(#a)" d="M33.7 25.8l-16.2-6.4-.2.5-.2.5-.2.5-.2.5s-3.3 11.4-3.4 11.7h.6c.2 0 .5 0 .7.1.2 0 .5.1.8.1l.8.1.9.1.9.1.9.2c-7.1-1.3-6.1-1.2 1 .2l2 .4c.7.2 1.4.3 2 .5.7.2 1.4.4 2 .6l2 .6c.4.1.8.3 1.2.5l1.2.5 1.1.5c.3.2.7.4 1 .5h2.4l.7-.4c.2-.1.5-.3.8-.4.3-.1.5-.2.8-.4.3-.1.6-.2.9-.4l.9-.3c.3-.1.6-.2 1-.3s.7-.2 1-.3l1-.3c.7-.2 1.4-.4 2-.5.7-.2 1.4-.3 2-.5.7-.2 1.3-.3 2-.4l1.9-.3 1.2-.2c.4-.1.7-.1 1.1-.1l1-.1c.3 0 .6 0 .9-.1 0-.1-3.4-11.7-3.4-11.7l-.2-.5-.2-.5-.2-.5-.2-.5-16.1 6.4z"/><path fill="#E9EEF8" d="M34.6 27.4zm-2.1 11.3z"/><linearGradient id="b" gradientUnits="userSpaceOnUse" x1="52.758" y1="28.442" x2="33.622" y2="28.442"><stop offset="0" stop-color="#fff"/><stop offset=".422" stop-color="#F2F5FB"/><stop offset="1" stop-color="#DDE6F5"/></linearGradient><path fill="url(#b)" d="M33.7 37.5v-11.2l.1-.1.1-.1.1-.1.1-.1c.9-.9 1.9-1.8 3-2.6s2.4-1.5 3.7-2c1.4-.6 2.8-1 4.3-1.4 1.5-.3 3.1-.5 4.8-.6l2.9 10c-1.9.1-3.8.3-5.6.7-1.8.4-3.5.9-5.1 1.6-1.6.7-3.1 1.5-4.4 2.4-1.3.9-2.5 1.9-3.5 3l-.1.1-.1.1-.1.1c-.2.1-.2.2-.2.2"/><linearGradient id="c" gradientUnits="userSpaceOnUse" x1="14.563" y1="28.442" x2="33.622" y2="28.442"><stop offset="0" stop-color="#fff"/><stop offset=".422" stop-color="#F2F5FB"/><stop offset="1" stop-color="#DDE6F5"/></linearGradient><path fill="url(#c)" d="M14.6 29.4l2.9-10c1.7 0 3.3.2 4.8.6 1.5.3 3 .8 4.3 1.4 1.4.6 2.6 1.2 3.7 2s2.1 1.6 3 2.6l.1.1.1.1.1.1.1.1v11.2l-.1-.1-.1-.1-.1-.1-.1-.1c-1-1.1-2.2-2.1-3.5-3-1.3-.9-2.8-1.7-4.4-2.4-1.6-.7-3.3-1.2-5.1-1.6-1.9-.5-3.8-.7-5.7-.8"/><linearGradient id="d" gradientUnits="userSpaceOnUse" x1="33.662" y1="26.736" x2="50.587" y2="26.736"><stop offset="0" stop-color="#E9EEF8"/><stop offset=".203" stop-color="#F4F7FC"/><stop offset=".502" stop-color="#FCFDFE"/><stop offset="1" stop-color="#fff"/></linearGradient><path fill="url(#d)" d="M33.7 36.9v-11.1c.5-1.2 1.3-2.4 2.2-3.4 1-1 2.1-2 3.4-2.8 1.3-.8 2.7-1.5 4.2-2s3-.9 4.5-1l2.6 9.6c-1.8.2-3.6.6-5.4 1.2-1.7.6-3.4 1.4-4.9 2.3-1.5.9-2.9 2-4 3.3-1.1 1.1-2 2.5-2.6 3.9"/><g enable-background="new"><linearGradient id="e" gradientUnits="userSpaceOnUse" x1="16.732" y1="26.736" x2="33.662" y2="26.736"><stop offset="0" stop-color="#fff"/><stop offset=".802" stop-color="#FDFEFF"/><stop offset="1" stop-color="#FAFDFF"/></linearGradient><path fill="url(#e)" d="M16.7 26.2l2.6-9.6c1.5.1 3.1.5 4.5 1 1.5.5 2.9 1.2 4.2 2 1.3.8 2.4 1.8 3.4 2.8 1 1 1.7 2.2 2.2 3.4v11.1c-.6-1.4-1.5-2.8-2.6-4-1.1-1.2-2.5-2.3-4-3.3-1.5-.9-3.2-1.7-4.9-2.3-1.7-.6-3.6-1-5.4-1.1"/></g><g opacity=".5"><radialGradient id="f" cx="-500.719" cy="-1015.059" r="48.714" gradientTransform="matrix(.358 0 0 .358 232.633 398.715)" gradientUnits="userSpaceOnUse"><stop offset="0" stop-color="#fff"/><stop offset=".422" stop-color="#F2F5FB"/><stop offset="1" stop-color="#DDE6F5"/></radialGradient><path fill="url(#f)" d="M34.2 37.4c3.4-3 10-6.4 19-6.8h.1v.2h-.1c-9 .4-15.4 3.9-18.7 6.7l-.1.1-.2-.2z"/><radialGradient id="g" cx="-500.721" cy="-1015.055" r="48.712" gradientTransform="matrix(.358 0 0 .358 232.633 398.715)" gradientUnits="userSpaceOnUse"><stop offset="0" stop-color="#fff"/><stop offset=".422" stop-color="#F2F5FB"/><stop offset="1" stop-color="#DDE6F5"/></radialGradient><path fill="url(#g)" d="M34.4 37.8c3.5-2.6 10.8-5.5 19.1-6h.1v.2h-.1c-8.2.5-15.5 3.3-18.9 5.9l-.1.1-.1-.2z"/><radialGradient id="h" cx="988.359" cy="-1015.058" r="48.707" gradientTransform="matrix(-.358 0 0 .358 368.523 398.715)" gradientUnits="userSpaceOnUse"><stop offset="0" stop-color="#fff"/><stop offset=".422" stop-color="#F2F5FB"/><stop offset="1" stop-color="#DDE6F5"/></radialGradient><path fill="url(#h)" d="M33.1 37.4c-3.4-3-10-6.4-19-6.8h-.1v.2h.1c9 .4 15.4 3.9 18.7 6.7l.1.1.2-.2z"/><radialGradient id="i" cx="988.357" cy="-1015.055" r="48.712" gradientTransform="matrix(-.358 0 0 .358 368.523 398.715)" gradientUnits="userSpaceOnUse"><stop offset="0" stop-color="#fff"/><stop offset=".422" stop-color="#F2F5FB"/><stop offset="1" stop-color="#DDE6F5"/></radialGradient><path fill="url(#i)" d="M32.9 37.8c-3.5-2.6-10.8-5.5-19.1-6h-.1v.2h.1c8.2.5 15.5 3.3 18.9 5.9l.1.1.1-.2z"/></g><path fill="#fff" d="M50.6 26.2c-1.8.2-3.6.6-5.4 1.2-1.7.6-3.4 1.4-4.9 2.3-1.5.9-2.9 2-4 3.3-1.1 1.2-2 2.6-2.6 4-.6-1.4-1.5-2.8-2.6-4-1.1-1.2-2.5-2.3-4-3.3-1.5-.9-3.2-1.7-4.9-2.3-1.7-.6-3.6-1-5.4-1.2v.4c1.8.2 3.5.6 5.2 1.1 1.7.6 3.3 1.3 4.8 2.3 1.5.9 2.8 2 3.9 3.2 1.1 1.2 2 2.5 2.6 3.8l.1.1.1.1.1.1.1.1.1-.1.1-.1.1-.1.1-.1c.6-1.4 1.5-2.7 2.6-3.8 1.1-1.2 2.4-2.3 3.9-3.2 1.5-.9 3.1-1.7 4.8-2.3 1.7-.6 3.5-1 5.2-1.1v-.4z"/></svg>