<?xml version="1.0" encoding="utf-8"?>
<!-- Generator: Adobe Illustrator 17.0.2, SVG Export Plug-In . SVG Version: 6.00 Build 0)  -->
<!DOCTYPE svg PUBLIC "-//W3C//DTD SVG 1.1//EN" "http://www.w3.org/Graphics/SVG/1.1/DTD/svg11.dtd">
<svg version="1.1" id="Layer_1" xmlns="http://www.w3.org/2000/svg" xmlns:xlink="http://www.w3.org/1999/xlink" x="0px" y="0px"
	 width="205.2px" height="55.2px" viewBox="0 0 205.2 55.2" style="enable-background:new 0 0 205.2 55.2;" xml:space="preserve">
<style type="text/css">
	.Drop_x0020_Shadow{fill:none;}
	.Round_x0020_Corners_x0020_2_x0020_pt{fill:#FFFFFF;stroke:#000000;stroke-miterlimit:10;}
	.Live_x0020_Reflect_x0020_X{fill:none;}
	.Bevel_x0020_Soft{fill:url(#SVGID_1_);}
	.Dusk{fill:#FFFFFF;}
	.Foliage_GS{fill:#FFDD00;}
	.Pompadour_GS{fill-rule:evenodd;clip-rule:evenodd;fill:#44ADE2;}
	.st0{fill:#D91A21;stroke:#FFFFFF;stroke-width:3;stroke-miterlimit:10;}
	.st1{fill:#FFFFFF;}
	.st2{fill:#FBAA19;}
	.st3{fill:#F36E28;}
</style>
<linearGradient id="SVGID_1_" gradientUnits="userSpaceOnUse" x1="-194.9888" y1="-393.4043" x2="-194.2817" y2="-392.6972">
	<stop  offset="0" style="stop-color:#DEDFE3"/>
	<stop  offset="0.1738" style="stop-color:#D8D9DD"/>
	<stop  offset="0.352" style="stop-color:#C9CACD"/>
	<stop  offset="0.5323" style="stop-color:#B4B5B8"/>
	<stop  offset="0.7139" style="stop-color:#989A9C"/>
	<stop  offset="0.8949" style="stop-color:#797C7E"/>
	<stop  offset="1" style="stop-color:#656B6C"/>
</linearGradient>
<g>
	<path class="st0" d="M177.6,1.5c-0.5,0-0.9,0-1.4,0v0H27v0C12.9,1.8,1.5,13.4,1.5,27.6c0,14.2,11.4,25.8,25.5,26.1v0h0.5
		c0,0,0.1,0,0.1,0c0,0,0.1,0,0.1,0h148.5v0c0.5,0,0.9,0,1.4,0c14.4,0,26.1-11.7,26.1-26.1C203.7,13.2,192,1.5,177.6,1.5z"/>
	<g>
		<path class="st1" d="M60.7,21.5c0-1.2,0.6-1.9,1.8-1.9h4.2c3.7,0,6,1.7,6,5.4c0,2.6-2,4.2-4.4,4.5l4.1,4.4
			c0.3,0.4,0.5,0.7,0.5,1.1c0,0.9-0.7,1.8-1.8,1.8c-0.4,0-1-0.2-1.4-0.6l-5.3-6.5h0V35c0,1.2-0.8,1.9-1.8,1.9c-1,0-1.8-0.7-1.8-1.9
			V21.5z M64.3,27.2h2.5c1.3,0,2.2-0.8,2.2-2.1c0-1.4-0.9-2.1-2.2-2.1h-2.5V27.2z"/>
		<path class="st1" d="M77.5,31.5c0.2,1.7,1.7,2.5,3.3,2.5c1.8,0,3-1.4,3.9-1.4c0.7,0,1.4,0.7,1.4,1.5c0,1.5-3.1,2.9-5.6,2.9
			c-3.9,0-6.5-2.8-6.5-6.6c0-3.5,2.5-6.7,6.2-6.7c3.7,0,6.2,3.4,6.2,6.3c0,1-0.5,1.5-1.5,1.5H77.5z M82.9,29.2
			c-0.2-1.5-1.2-2.6-2.8-2.6c-1.5,0-2.6,1.2-2.7,2.6H82.9z"/>
		<path class="st1" d="M100.1,34.6c0,0.9,0,2.3-1.7,2.3c-1,0-1.4-0.6-1.7-1.5c-0.9,1.1-2,1.6-3.3,1.6c-3.2,0-5.7-2.8-5.7-6.6
			c0-3.8,2.5-6.7,5.7-6.7c1.3,0,2.5,0.5,3.3,1.6c0.1-0.8,0.8-1.4,1.7-1.4c1.7,0,1.7,1.4,1.7,2.3V34.6z M94,33.8
			c1.8,0,2.7-1.8,2.7-3.5c0-1.7-0.8-3.5-2.7-3.5c-1.9,0-2.7,1.9-2.7,3.5C91.3,32,92.1,33.8,94,33.8z"/>
		<path class="st1" d="M114.6,34.9c0,1.2-0.7,1.9-1.7,1.9c-1,0-1.5-0.5-1.7-1.4c-0.6,1.1-2,1.6-3.2,1.6c-3.5,0-5.7-3.2-5.7-6.5
			c0-3.4,1.8-6.8,5.6-6.8c1.2,0,2.4,0.4,3.3,1.2v-4.7c0-1.2,0.7-1.9,1.7-1.9c1,0,1.7,0.8,1.7,1.9V34.9z M108.4,26.8
			c-1.8,0-2.7,1.9-2.7,3.5c0,1.6,0.9,3.5,2.7,3.5c1.9,0,2.7-1.9,2.7-3.6C111.2,28.5,110.3,26.8,108.4,26.8z"/>
		<path class="st1" d="M125.3,27h-0.8c-0.9,0-1.5-0.6-1.5-1.5c0-0.9,0.6-1.5,1.5-1.5h0.8v-2.1c0-1.2,0.7-1.9,1.7-1.9
			c1,0,1.7,0.8,1.7,1.9v2.1h1c0.9,0,1.7,0.4,1.7,1.5c0,1.1-0.8,1.5-1.7,1.5h-1v8c0,1.2-0.7,1.9-1.7,1.9c-1,0-1.7-0.8-1.7-1.9V27z"/>
		<path class="st1" d="M144.2,30.3c0,3.6-2.5,6.6-6.2,6.6c-3.7,0-6.2-3-6.2-6.6c0-3.5,2.5-6.7,6.2-6.7
			C141.6,23.6,144.2,26.8,144.2,30.3z M135.2,30.3c0,1.7,0.9,3.5,2.7,3.5c1.9,0,2.7-1.8,2.7-3.5c0-1.7-0.8-3.5-2.7-3.5
			C136.1,26.8,135.2,28.7,135.2,30.3z"/>
		<path class="st1" d="M153.5,25.7c0-1.2,0.7-1.9,1.7-1.9c0.9,0,1.5,0.5,1.6,1.3c0.8-0.9,1.9-1.4,3.2-1.4c1.4,0,2.7,0.6,3.6,1.8
			c1-1.1,2.5-1.8,3.6-1.8c2.8,0,4.7,1.6,4.7,4.7v6.6c0,1.2-0.7,1.9-1.7,1.9c-1,0-1.7-0.8-1.7-1.9v-6c0-1.4-0.8-2.4-2-2.4
			c-1.3,0-2,1-2,2.4v6c0,1.2-0.7,1.9-1.7,1.9c-1,0-1.7-0.8-1.7-1.9v-6c0-1.4-0.8-2.4-2-2.4c-1.4,0-2,1-2,2.4v6
			c0,1.2-0.7,1.9-1.7,1.9s-1.7-0.8-1.7-1.9V25.7z"/>
		<path class="st1" d="M177.4,31.5c0.2,1.7,1.7,2.5,3.3,2.5c1.8,0,3-1.4,3.9-1.4c0.7,0,1.4,0.7,1.4,1.5c0,1.5-3.1,2.9-5.6,2.9
			c-3.9,0-6.5-2.8-6.5-6.6c0-3.5,2.5-6.7,6.2-6.7c3.7,0,6.2,3.4,6.2,6.3c0,1-0.5,1.5-1.5,1.5H177.4z M182.9,29.2
			c-0.2-1.5-1.2-2.6-2.8-2.6c-1.5,0-2.6,1.2-2.7,2.6H182.9z"/>
	</g>
	<g>
		<path class="st1" d="M31.3,20.4c0,1.5,0.8,3,2.1,4.1l-1.9,4.9l6.3-2.7c1.1,0.3,2.3,0.4,3.6,0.4c5.6,0,10.1-3,10.1-6.7
			c0-3.7-4.5-6.7-10.1-6.7C35.8,13.7,31.3,16.7,31.3,20.4z"/>
		<g>
			<g>
				<polygon class="st2" points="21,25 15.8,25 15.8,35.3 21,35.3 28.4,42.5 28.4,17.7 				"/>
			</g>
			<g>
				<polygon class="st1" points="21,25 15.8,25 15.8,35.3 21,35.3 28.4,42.5 28.4,17.7 				"/>
			</g>
		</g>
		<g>
			<path class="st3" d="M41.1,20.5c0-0.4-0.1-0.7-0.1-0.9c-0.1-0.2-0.2-0.5-0.4-1c-0.2-0.4-0.3-0.8-0.3-1c0-0.3,0.1-0.6,0.3-0.9
				c0.2-0.2,0.5-0.4,0.8-0.4c0.3,0,0.6,0.1,0.8,0.3c0.2,0.2,0.3,0.5,0.3,0.9c0,0.3-0.1,0.6-0.3,1c-0.2,0.4-0.4,0.7-0.4,0.9
				c-0.1,0.2-0.1,0.5-0.1,1c0.4-0.2,0.7-0.3,0.8-0.4c0.2-0.1,0.4-0.4,0.8-0.7c0.4-0.5,0.9-0.7,1.3-0.7c0.3,0,0.6,0.1,0.8,0.3
				c0.2,0.2,0.3,0.4,0.3,0.7c0,0.3-0.1,0.6-0.4,0.8c-0.3,0.2-0.6,0.3-1,0.3c-0.1,0-0.4,0-0.8,0c-0.2,0-0.4,0-0.5,0
				c-0.3,0-0.7,0-1.2,0c0.3,0.3,0.5,0.6,0.7,0.7c0.2,0.1,0.5,0.3,0.9,0.5c0.4,0.2,0.7,0.4,0.9,0.7c0.1,0.2,0.2,0.4,0.2,0.7
				c0,0.3-0.1,0.6-0.3,0.8c-0.2,0.2-0.5,0.3-0.7,0.3c-0.3,0-0.6-0.1-0.8-0.4c-0.2-0.3-0.4-0.7-0.5-1.3c-0.1-0.4-0.1-0.7-0.2-0.9
				c-0.1-0.2-0.2-0.5-0.4-0.8c-0.2,0.4-0.4,0.7-0.5,0.9c-0.1,0.2-0.1,0.5-0.2,0.9c-0.1,0.6-0.3,1.1-0.5,1.3
				c-0.2,0.2-0.5,0.4-0.8,0.4c-0.3,0-0.5-0.1-0.7-0.3c-0.2-0.2-0.3-0.4-0.3-0.7c0-0.3,0.1-0.5,0.2-0.8c0.2-0.2,0.5-0.5,0.9-0.7
				c0.4-0.2,0.7-0.4,0.9-0.5c0.2-0.1,0.4-0.3,0.7-0.6l-1.1,0c-0.2,0-0.4,0-0.6,0c-0.4,0-0.7,0-0.9,0c-0.4,0-0.7-0.1-1-0.3
				c-0.3-0.2-0.4-0.5-0.4-0.8c0-0.3,0.1-0.5,0.3-0.7c0.2-0.2,0.5-0.3,0.8-0.3c0.4,0,0.9,0.2,1.3,0.6c0.4,0.4,0.7,0.7,0.8,0.8
				C40.5,20.2,40.7,20.3,41.1,20.5z"/>
		</g>
	</g>
</g>
</svg>
