<?xml version="1.0" encoding="utf-8"?>
<!-- Generator: Adobe Illustrator 17.0.2, SVG Export Plug-In . SVG Version: 6.00 Build 0)  -->
<!DOCTYPE svg PUBLIC "-//W3C//DTD SVG 1.1//EN" "http://www.w3.org/Graphics/SVG/1.1/DTD/svg11.dtd">
<svg version="1.1" id="Layer_1" xmlns="http://www.w3.org/2000/svg" xmlns:xlink="http://www.w3.org/1999/xlink" x="0px" y="0px"
	 width="135.2px" height="55.2px" viewBox="0 0 135.2 55.2" style="enable-background:new 0 0 135.2 55.2;" xml:space="preserve">
<style type="text/css">
	.Drop_x0020_Shadow{fill:none;}
	.Round_x0020_Corners_x0020_2_x0020_pt{fill:#FFFFFF;stroke:#000000;stroke-miterlimit:10;}
	.Live_x0020_Reflect_x0020_X{fill:none;}
	.Bevel_x0020_Soft{fill:url(#SVGID_1_);}
	.Dusk{fill:#FFFFFF;}
	.Foliage_GS{fill:#FFDD00;}
	.Pompadour_GS{fill-rule:evenodd;clip-rule:evenodd;fill:#44ADE2;}
	.st0{fill:#D91A21;stroke:#FFFFFF;stroke-width:3;stroke-miterlimit:10;}
	.st1{fill:#FFFFFF;}
</style>
<linearGradient id="SVGID_1_" gradientUnits="userSpaceOnUse" x1="-229.916" y1="-393.4043" x2="-229.2089" y2="-392.6972">
	<stop  offset="0" style="stop-color:#DEDFE3"/>
	<stop  offset="0.1738" style="stop-color:#D8D9DD"/>
	<stop  offset="0.352" style="stop-color:#C9CACD"/>
	<stop  offset="0.5323" style="stop-color:#B4B5B8"/>
	<stop  offset="0.7139" style="stop-color:#989A9C"/>
	<stop  offset="0.8949" style="stop-color:#797C7E"/>
	<stop  offset="1" style="stop-color:#656B6C"/>
</linearGradient>
<g>
	<g>
		<g>
			<g>
				<path class="st0" d="M107.6,1.5c-0.5,0-0.9,0-1.4,0v0H27v0C12.9,1.8,1.5,13.4,1.5,27.6c0,14.2,11.4,25.8,25.5,26.1v0h0.5
					c0,0,0.1,0,0.1,0s0.1,0,0.1,0h78.5v0c0.5,0,0.9,0,1.4,0c14.4,0,26.1-11.7,26.1-26.1C133.7,13.2,122,1.5,107.6,1.5z"/>
			</g>
		</g>
	</g>
	<g>
		<path class="st1" d="M24.3,17.1c1.9,0,5.6,0.6,5.6,2.9c0,0.9-0.7,1.7-1.6,1.7c-1.1,0-1.8-0.9-4-0.9c-3.2,0-4.9,2.7-4.9,5.9
			c0,3.1,1.7,5.7,4.9,5.7c2.2,0,3.1-1.1,4.1-1.1c1.2,0,1.7,1.2,1.7,1.8c0,2.5-3.9,3.1-5.8,3.1c-5.3,0-8.9-4.2-8.9-9.6
			C15.4,21.2,19,17.1,24.3,17.1z"/>
		<path class="st1" d="M45.6,29c0,3.9-2.7,7.2-6.7,7.2s-6.7-3.3-6.7-7.2c0-3.8,2.8-7.3,6.7-7.3C42.8,21.7,45.6,25.2,45.6,29z
			 M35.9,29c0,1.8,0.9,3.8,3,3.8s3-2,3-3.8c0-1.8-0.9-3.8-3-3.8C36.8,25.2,35.9,27.2,35.9,29z"/>
		<path class="st1" d="M47.9,24c0-1.2,0.8-2.1,1.9-2.1c1,0,1.6,0.5,1.7,1.4c0.7-1,1.8-1.5,3.6-1.5c2.9,0,5.1,1.9,5.1,5V34
			c0,1.2-0.8,2.1-1.9,2.1c-1.1,0-1.9-0.8-1.9-2.1v-6.5c0-1.7-1.1-2.6-2.4-2.6c-1.5,0-2.4,1.1-2.4,2.6V34c0,1.2-0.8,2.1-1.9,2.1
			c-1.1,0-1.9-0.8-1.9-2.1V24z"/>
		<path class="st1" d="M64.1,25.3h-0.8c-1,0-1.6-0.6-1.6-1.6c0-0.9,0.7-1.6,1.6-1.6h0.8v-2.2c0-1.2,0.8-2.1,1.9-2.1
			c1.1,0,1.9,0.8,1.9,2.1v2.2h1.1c1,0,1.8,0.4,1.8,1.6c0,1.2-0.8,1.6-1.8,1.6h-1.1V34c0,1.2-0.8,2.1-1.9,2.1c-1.1,0-1.9-0.8-1.9-2.1
			V25.3z"/>
		<path class="st1" d="M74.6,30.2c0.3,1.8,1.8,2.7,3.5,2.7c1.9,0,3.2-1.5,4.2-1.5c0.8,0,1.5,0.8,1.5,1.6c0,1.6-3.3,3.2-6.1,3.2
			c-4.2,0-7-3.1-7-7.2c0-3.8,2.8-7.3,6.7-7.3c4.1,0,6.7,3.7,6.7,6.8c0,1.1-0.5,1.7-1.6,1.7H74.6z M80.5,27.7c-0.2-1.6-1.2-2.9-3-2.9
			c-1.7,0-2.8,1.3-3,2.9H80.5z"/>
		<path class="st1" d="M86.4,24c0-1.2,0.8-2.1,1.9-2.1c1,0,1.6,0.5,1.7,1.4c0.7-1,1.8-1.5,3.6-1.5c2.9,0,5.1,1.9,5.1,5V34
			c0,1.2-0.8,2.1-1.9,2.1C95.7,36,95,35.2,95,34v-6.5c0-1.7-1.1-2.6-2.4-2.6c-1.5,0-2.4,1.1-2.4,2.6V34c0,1.2-0.8,2.1-1.9,2.1
			c-1.1,0-1.9-0.8-1.9-2.1V24z"/>
		<path class="st1" d="M102.5,25.3h-0.8c-1,0-1.6-0.6-1.6-1.6c0-0.9,0.7-1.6,1.6-1.6h0.8v-2.2c0-1.2,0.8-2.1,1.9-2.1
			c1.1,0,1.9,0.8,1.9,2.1v2.2h1.1c1,0,1.8,0.4,1.8,1.6c0,1.2-0.8,1.6-1.8,1.6h-1.1V34c0,1.2-0.8,2.1-1.9,2.1c-1.1,0-1.9-0.8-1.9-2.1
			V25.3z"/>
		<path class="st1" d="M118,26.1c-0.7,0-2.1-1.1-3.4-1.1c-0.7,0-1.3,0.3-1.3,1c0,1.7,6.5,1.5,6.5,5.7c0,2.5-2.1,4.4-5.3,4.4
			c-2.1,0-5.2-1.2-5.2-2.9c0-0.6,0.6-1.7,1.6-1.7c1.5,0,2.1,1.3,3.9,1.3c1.1,0,1.5-0.4,1.5-1.1c0-1.7-6.5-1.5-6.5-5.7
			c0-2.6,2.1-4.4,5.1-4.4c1.8,0,4.7,0.9,4.7,2.7C119.5,25.3,118.8,26.1,118,26.1z"/>
	</g>
</g>
</svg>
